G04 Layer_Color=8421504*
%FSLAX43Y43*%
%MOMM*%
%TF.FileFunction,Paste,Top*%
%TF.Part,Single*%
G01*
G75*
%TA.AperFunction,SMDPad,CuDef*%
%ADD10R,1.100X1.500*%
%ADD11R,1.500X1.100*%
%ADD12O,2.150X0.600*%
%ADD13R,2.150X0.600*%
%ADD14O,0.600X2.150*%
%ADD15R,0.600X2.150*%
%ADD16R,0.600X1.100*%
%ADD17R,0.900X0.900*%
%ADD18R,1.250X0.900*%
%ADD19O,1.300X0.300*%
%ADD20R,1.300X0.300*%
%ADD21O,0.300X1.700*%
D10*
X43518Y27178D02*
D03*
X41318D02*
D03*
X12616Y15748D02*
D03*
X14816D02*
D03*
X29548Y17272D02*
D03*
X27348D02*
D03*
X41486Y19685D02*
D03*
X39286D02*
D03*
X34501D02*
D03*
X32301D02*
D03*
X37254Y27178D02*
D03*
X39454D02*
D03*
X37254Y29464D02*
D03*
X39454D02*
D03*
X51901Y21579D02*
D03*
X54101D02*
D03*
X52408Y29591D02*
D03*
X50208D02*
D03*
X50251Y31623D02*
D03*
X52451D02*
D03*
X26078Y24511D02*
D03*
X28278D02*
D03*
Y30861D02*
D03*
X26078D02*
D03*
Y32766D02*
D03*
X28278D02*
D03*
X14816Y7747D02*
D03*
X12616D02*
D03*
X14816Y11557D02*
D03*
X12616D02*
D03*
X29167Y5969D02*
D03*
X26967D02*
D03*
X16426Y3683D02*
D03*
X18626D02*
D03*
X25103D02*
D03*
X22903D02*
D03*
X14816Y9652D02*
D03*
X12616D02*
D03*
X22563Y16002D02*
D03*
X20363D02*
D03*
X26967Y13843D02*
D03*
X29167D02*
D03*
X11600Y26797D02*
D03*
X13800D02*
D03*
X17991D02*
D03*
X15791D02*
D03*
X13800Y22606D02*
D03*
X11600D02*
D03*
X29167Y9652D02*
D03*
X26967D02*
D03*
X29548Y19685D02*
D03*
X27348D02*
D03*
X20490Y24511D02*
D03*
X22690D02*
D03*
X43477Y19685D02*
D03*
X45677D02*
D03*
Y23876D02*
D03*
X43477D02*
D03*
D11*
X47625Y8933D02*
D03*
Y11133D02*
D03*
X15494Y20819D02*
D03*
Y18619D02*
D03*
X32258Y17399D02*
D03*
Y15199D02*
D03*
X41529Y15156D02*
D03*
Y17356D02*
D03*
X36830Y16086D02*
D03*
Y13886D02*
D03*
Y19642D02*
D03*
Y17442D02*
D03*
X45720Y16086D02*
D03*
Y13886D02*
D03*
X33147Y9228D02*
D03*
Y7028D02*
D03*
X30480Y24554D02*
D03*
Y26754D02*
D03*
X24130Y26586D02*
D03*
Y28786D02*
D03*
X18034Y32977D02*
D03*
Y30777D02*
D03*
X12573Y5545D02*
D03*
Y3345D02*
D03*
X29210Y4021D02*
D03*
Y1821D02*
D03*
X56642Y6434D02*
D03*
Y4234D02*
D03*
X44323Y6647D02*
D03*
Y8847D02*
D03*
X41910D02*
D03*
Y6647D02*
D03*
D12*
X24328Y20950D02*
D03*
X18613Y19680D02*
D03*
Y18410D02*
D03*
X24328D02*
D03*
Y22220D02*
D03*
X18613Y20950D02*
D03*
X24328Y19680D02*
D03*
X54173Y26411D02*
D03*
X48458Y25141D02*
D03*
Y23871D02*
D03*
X54173D02*
D03*
Y27681D02*
D03*
X48458Y26411D02*
D03*
X54173Y25141D02*
D03*
D13*
X18613Y22220D02*
D03*
X48458Y27681D02*
D03*
D14*
X38603Y5136D02*
D03*
X37333Y10851D02*
D03*
X36063D02*
D03*
Y5136D02*
D03*
X39873D02*
D03*
X38603Y10851D02*
D03*
X37333Y5136D02*
D03*
D15*
X39873Y10851D02*
D03*
D16*
X28128Y26289D02*
D03*
X26228D02*
D03*
X27178D02*
D03*
X28128Y29089D02*
D03*
X26228D02*
D03*
D17*
X16453Y5903D02*
D03*
Y7808D02*
D03*
X25203Y7813D02*
D03*
Y5908D02*
D03*
Y11623D02*
D03*
Y9718D02*
D03*
X16453Y9713D02*
D03*
Y11618D02*
D03*
D18*
X18675Y6856D02*
D03*
X22981Y6860D02*
D03*
Y10670D02*
D03*
X18675Y10666D02*
D03*
D19*
X36506Y23511D02*
D03*
Y24011D02*
D03*
X40456Y24511D02*
D03*
Y24011D02*
D03*
X36506Y25011D02*
D03*
Y24511D02*
D03*
Y25511D02*
D03*
X40456Y25011D02*
D03*
Y25511D02*
D03*
D20*
Y23511D02*
D03*
D21*
X53705Y8019D02*
D03*
X53205D02*
D03*
X52705D02*
D03*
X52205D02*
D03*
X51705D02*
D03*
X53705Y3919D02*
D03*
X53205D02*
D03*
X52705D02*
D03*
X52205D02*
D03*
X51705D02*
D03*
%TF.MD5,8dbc7d54811bc626c0e3d0745a0aa576*%
M02*
