G04 Layer_Color=8388736*
%FSLAX43Y43*%
%MOMM*%
%TF.FileFunction,Soldermask,Top*%
%TF.Part,Single*%
G01*
G75*
%TA.AperFunction,ComponentPad*%
%ADD32R,1.650X1.400*%
%ADD33O,1.650X1.400*%
%ADD34R,1.750X1.750*%
%ADD35C,1.750*%
%ADD36C,0.150*%
%ADD37C,1.776*%
%ADD38R,1.776X1.776*%
%TA.AperFunction,ViaPad*%
%ADD39C,1.150*%
%TA.AperFunction,SMDPad,CuDef*%
%ADD44R,1.650X1.250*%
%ADD45O,0.450X1.850*%
%ADD46R,1.250X1.650*%
%ADD47O,1.450X0.450*%
%ADD48R,1.450X0.450*%
%ADD49R,1.400X1.050*%
%ADD50R,1.050X1.050*%
%ADD51R,0.750X1.250*%
%ADD52O,2.300X0.750*%
%ADD53R,2.300X0.750*%
%ADD54O,0.750X2.300*%
%ADD55R,0.750X2.300*%
D32*
X57023Y13716D02*
D03*
X49276D02*
D03*
D33*
X57023Y16256D02*
D03*
Y18796D02*
D03*
Y21336D02*
D03*
X49276Y16256D02*
D03*
Y18796D02*
D03*
Y21336D02*
D03*
D34*
X7440Y12420D02*
D03*
D35*
Y15163D02*
D03*
Y17906D02*
D03*
Y20650D02*
D03*
Y23393D02*
D03*
X4900Y13792D02*
D03*
Y16535D02*
D03*
X4890Y19278D02*
D03*
X4900Y22021D02*
D03*
D36*
X6212Y30403D02*
D03*
Y5410D02*
D03*
D37*
X62611Y29591D02*
D03*
Y27051D02*
D03*
Y24511D02*
D03*
Y21971D02*
D03*
Y19431D02*
D03*
Y16891D02*
D03*
Y14351D02*
D03*
Y11811D02*
D03*
Y32131D02*
D03*
Y9271D02*
D03*
Y6731D02*
D03*
Y4191D02*
D03*
Y1651D02*
D03*
D38*
Y34671D02*
D03*
D39*
X18669Y8763D02*
D03*
X22987D02*
D03*
X15494Y22352D02*
D03*
X31369Y9398D02*
D03*
X32004Y5715D02*
D03*
X30988Y12319D02*
D03*
X25527Y16002D02*
D03*
X30226Y22479D02*
D03*
X33401Y22098D02*
D03*
X60325Y9525D02*
D03*
Y12827D02*
D03*
X54356Y10287D02*
D03*
X56134Y10541D02*
D03*
X24384Y24638D02*
D03*
X18542Y16764D02*
D03*
X30480Y10922D02*
D03*
X35433Y22225D02*
D03*
X40767Y31496D02*
D03*
X46736Y31623D02*
D03*
X50673Y22733D02*
D03*
X35687Y11938D02*
D03*
X57912Y8128D02*
D03*
X51705Y16891D02*
D03*
X52705Y17907D02*
D03*
D44*
X41910Y6647D02*
D03*
Y8847D02*
D03*
X44323D02*
D03*
Y6647D02*
D03*
X56642Y4234D02*
D03*
Y6434D02*
D03*
X29210Y1821D02*
D03*
Y4021D02*
D03*
X12573Y3345D02*
D03*
Y5545D02*
D03*
X18034Y30777D02*
D03*
Y32977D02*
D03*
X24130Y28786D02*
D03*
Y26586D02*
D03*
X30480Y26754D02*
D03*
Y24554D02*
D03*
X33147Y7028D02*
D03*
Y9228D02*
D03*
X45720Y13886D02*
D03*
Y16086D02*
D03*
X36830Y17442D02*
D03*
Y19642D02*
D03*
Y13886D02*
D03*
Y16086D02*
D03*
X41529Y17356D02*
D03*
Y15156D02*
D03*
X32258Y15199D02*
D03*
Y17399D02*
D03*
X15494Y18619D02*
D03*
Y20819D02*
D03*
X47625Y11133D02*
D03*
Y8933D02*
D03*
D45*
X51705Y3919D02*
D03*
X52205D02*
D03*
X52705D02*
D03*
X53205D02*
D03*
X53705D02*
D03*
X51705Y8019D02*
D03*
X52205D02*
D03*
X52705D02*
D03*
X53205D02*
D03*
X53705D02*
D03*
D46*
X43477Y23876D02*
D03*
X45677D02*
D03*
Y19685D02*
D03*
X43477D02*
D03*
X22690Y24511D02*
D03*
X20490D02*
D03*
X27348Y19685D02*
D03*
X29548D02*
D03*
X26967Y9652D02*
D03*
X29167D02*
D03*
X11600Y22606D02*
D03*
X13800D02*
D03*
X15791Y26797D02*
D03*
X17991D02*
D03*
X13800D02*
D03*
X11600D02*
D03*
X29167Y13843D02*
D03*
X26967D02*
D03*
X20363Y16002D02*
D03*
X22563D02*
D03*
X12616Y9652D02*
D03*
X14816D02*
D03*
X22903Y3683D02*
D03*
X25103D02*
D03*
X18626D02*
D03*
X16426D02*
D03*
X26967Y5969D02*
D03*
X29167D02*
D03*
X12616Y11557D02*
D03*
X14816D02*
D03*
X12616Y7747D02*
D03*
X14816D02*
D03*
X28278Y32766D02*
D03*
X26078D02*
D03*
Y30861D02*
D03*
X28278D02*
D03*
Y24511D02*
D03*
X26078D02*
D03*
X52451Y31623D02*
D03*
X50251D02*
D03*
X50208Y29591D02*
D03*
X52408D02*
D03*
X54101Y21579D02*
D03*
X51901D02*
D03*
X39454Y29464D02*
D03*
X37254D02*
D03*
X39454Y27178D02*
D03*
X37254D02*
D03*
X32301Y19685D02*
D03*
X34501D02*
D03*
X39286D02*
D03*
X41486D02*
D03*
X27348Y17272D02*
D03*
X29548D02*
D03*
X14816Y15748D02*
D03*
X12616D02*
D03*
X41318Y27178D02*
D03*
X43518D02*
D03*
D47*
X40456Y25511D02*
D03*
Y25011D02*
D03*
X36506Y25511D02*
D03*
Y24511D02*
D03*
Y25011D02*
D03*
X40456Y24011D02*
D03*
Y24511D02*
D03*
X36506Y24011D02*
D03*
Y23511D02*
D03*
D48*
X40456D02*
D03*
D49*
X18675Y10666D02*
D03*
X22981Y10670D02*
D03*
Y6860D02*
D03*
X18675Y6856D02*
D03*
D50*
X16453Y11618D02*
D03*
Y9713D02*
D03*
X25203Y9718D02*
D03*
Y11623D02*
D03*
Y5908D02*
D03*
Y7813D02*
D03*
X16453Y7808D02*
D03*
Y5903D02*
D03*
D51*
X26228Y29089D02*
D03*
X28128D02*
D03*
X27178Y26289D02*
D03*
X26228D02*
D03*
X28128D02*
D03*
D52*
X54173Y25141D02*
D03*
X48458Y26411D02*
D03*
X54173Y27681D02*
D03*
Y23871D02*
D03*
X48458D02*
D03*
Y25141D02*
D03*
X54173Y26411D02*
D03*
X24328Y19680D02*
D03*
X18613Y20950D02*
D03*
X24328Y22220D02*
D03*
Y18410D02*
D03*
X18613D02*
D03*
Y19680D02*
D03*
X24328Y20950D02*
D03*
D53*
X48458Y27681D02*
D03*
X18613Y22220D02*
D03*
D54*
X37333Y5136D02*
D03*
X38603Y10851D02*
D03*
X39873Y5136D02*
D03*
X36063D02*
D03*
Y10851D02*
D03*
X37333D02*
D03*
X38603Y5136D02*
D03*
D55*
X39873Y10851D02*
D03*
%TF.MD5,17030367268245e1e499d794c6d94afd*%
M02*
