G04 Layer_Physical_Order=1*
G04 Layer_Color=255*
%FSLAX43Y43*%
%MOMM*%
%TF.FileFunction,Copper,L1,Top,Signal*%
%TF.Part,Single*%
G01*
G75*
%TA.AperFunction,SMDPad,CuDef*%
%ADD10R,1.100X1.500*%
%ADD11R,1.500X1.100*%
%ADD12O,2.150X0.600*%
%ADD13R,2.150X0.600*%
%ADD14O,0.600X2.150*%
%ADD15R,0.600X2.150*%
%ADD16R,0.600X1.100*%
%ADD17R,0.900X0.900*%
%ADD18R,1.250X0.900*%
%ADD19O,1.300X0.300*%
%ADD20R,1.300X0.300*%
%ADD21O,0.300X1.700*%
%TA.AperFunction,Conductor*%
%ADD22C,0.305*%
%ADD23C,0.610*%
%ADD24C,1.219*%
%TA.AperFunction,ComponentPad*%
%ADD25O,1.500X1.250*%
%ADD26R,1.500X1.250*%
%ADD27C,1.626*%
%ADD28R,1.626X1.626*%
%ADD29C,1.600*%
%ADD30R,1.600X1.600*%
%TA.AperFunction,ViaPad*%
%ADD31C,1.000*%
G36*
X36393Y26428D02*
X36417Y26309D01*
X36484Y26208D01*
X36585Y26141D01*
X36704Y26117D01*
X37761D01*
Y25847D01*
X37391Y25477D01*
X36506D01*
X36494Y25475D01*
X36006D01*
X35829Y25439D01*
X35678Y25339D01*
X35578Y25188D01*
X35542Y25011D01*
X35578Y24834D01*
X35626Y24761D01*
X35578Y24688D01*
X35542Y24511D01*
X35578Y24334D01*
X35626Y24261D01*
X35578Y24188D01*
X35542Y24011D01*
X35578Y23834D01*
X35678Y23683D01*
X35829Y23583D01*
X36006Y23547D01*
X36494D01*
X36506Y23545D01*
X37098D01*
X38376Y22267D01*
X38527Y22166D01*
X38705Y22130D01*
X39175D01*
X39740Y21565D01*
X39891Y21464D01*
X40070Y21429D01*
X45846D01*
X46507Y20767D01*
X46426Y20669D01*
X46346Y20722D01*
X46227Y20746D01*
X45127D01*
X45008Y20722D01*
X44907Y20655D01*
X44840Y20554D01*
X44816Y20435D01*
Y18935D01*
X44840Y18816D01*
X44907Y18715D01*
X45008Y18648D01*
X45055Y18638D01*
Y16947D01*
X44970D01*
X44851Y16923D01*
X44750Y16856D01*
X44683Y16755D01*
X44659Y16636D01*
Y15536D01*
X44683Y15417D01*
X44750Y15316D01*
X44851Y15249D01*
X44970Y15225D01*
X46470D01*
X46589Y15249D01*
X46690Y15316D01*
X46757Y15417D01*
X46767Y15464D01*
X48655D01*
X48682Y15444D01*
X48908Y15350D01*
X49151Y15318D01*
X49401D01*
X49644Y15350D01*
X49870Y15444D01*
X50064Y15593D01*
X50213Y15787D01*
X50307Y16013D01*
X50339Y16256D01*
X50307Y16499D01*
X50213Y16725D01*
X50064Y16919D01*
X49898Y17047D01*
Y18005D01*
X50064Y18133D01*
X50213Y18327D01*
X50307Y18553D01*
X50339Y18796D01*
X50307Y19039D01*
X50232Y19219D01*
X50298Y19346D01*
X52385D01*
X52911Y18820D01*
X52852Y18699D01*
X52705Y18719D01*
X52495Y18691D01*
X52299Y18610D01*
X52131Y18481D01*
X52002Y18313D01*
X51921Y18117D01*
X51893Y17907D01*
X51907Y17804D01*
X51794Y17691D01*
X51705Y17703D01*
X51495Y17675D01*
X51299Y17594D01*
X51131Y17465D01*
X51002Y17297D01*
X50921Y17101D01*
X50893Y16891D01*
X50921Y16681D01*
X51002Y16485D01*
X51131Y16317D01*
X51239Y16234D01*
Y8458D01*
X48686D01*
Y9483D01*
X48662Y9602D01*
X48595Y9703D01*
X48494Y9770D01*
X48375Y9794D01*
X46875D01*
X46756Y9770D01*
X46655Y9703D01*
X46588Y9602D01*
X46564Y9483D01*
Y9469D01*
X45370D01*
X45360Y9516D01*
X45293Y9617D01*
X45192Y9684D01*
X45073Y9708D01*
X43573D01*
X43454Y9684D01*
X43353Y9617D01*
X43286Y9516D01*
X43276Y9469D01*
X42957D01*
X42947Y9516D01*
X42880Y9617D01*
X42779Y9684D01*
X42660Y9708D01*
X41160D01*
X41041Y9684D01*
X40940Y9617D01*
X40873Y9516D01*
X40863Y9469D01*
X40475D01*
X40471Y9474D01*
X40419Y9596D01*
X40460Y9657D01*
X40484Y9776D01*
Y11926D01*
X40460Y12045D01*
X40393Y12146D01*
X40372Y12311D01*
X40387Y12332D01*
X42545D01*
X42783Y12380D01*
X42985Y12514D01*
X43734Y13264D01*
X44673D01*
X44683Y13217D01*
X44750Y13116D01*
X44851Y13049D01*
X44970Y13025D01*
X46470D01*
X46589Y13049D01*
X46690Y13116D01*
X46757Y13217D01*
X46781Y13336D01*
Y14436D01*
X46757Y14555D01*
X46690Y14656D01*
X46589Y14723D01*
X46470Y14747D01*
X44970D01*
X44851Y14723D01*
X44750Y14656D01*
X44683Y14555D01*
X44673Y14508D01*
X44099D01*
Y15451D01*
X44051Y15689D01*
X43917Y15891D01*
X43111Y16695D01*
X42910Y16830D01*
X42672Y16878D01*
X42590D01*
Y17906D01*
X42566Y18025D01*
X42499Y18126D01*
X42398Y18193D01*
X42279Y18217D01*
X42151D01*
Y18647D01*
X42155Y18648D01*
X42256Y18715D01*
X42323Y18816D01*
X42347Y18935D01*
Y19063D01*
X42616D01*
Y18935D01*
X42640Y18816D01*
X42707Y18715D01*
X42808Y18648D01*
X42927Y18624D01*
X44027D01*
X44146Y18648D01*
X44247Y18715D01*
X44314Y18816D01*
X44338Y18935D01*
Y20435D01*
X44314Y20554D01*
X44247Y20655D01*
X44146Y20722D01*
X44027Y20746D01*
X42927D01*
X42808Y20722D01*
X42707Y20655D01*
X42640Y20554D01*
X42616Y20435D01*
Y20307D01*
X42347D01*
Y20435D01*
X42323Y20554D01*
X42256Y20655D01*
X42155Y20722D01*
X42036Y20746D01*
X40936D01*
X40817Y20722D01*
X40716Y20655D01*
X40649Y20554D01*
X40625Y20435D01*
Y18935D01*
X40649Y18816D01*
X40716Y18715D01*
X40817Y18648D01*
X40907Y18630D01*
Y18217D01*
X40779D01*
X40660Y18193D01*
X40559Y18126D01*
X40492Y18025D01*
X40468Y17906D01*
Y16878D01*
X38313D01*
X38075Y16830D01*
X37998Y16778D01*
X37883Y16855D01*
X37891Y16892D01*
Y17992D01*
X37867Y18111D01*
X37800Y18212D01*
X37699Y18279D01*
X37580Y18303D01*
X36080D01*
X35961Y18279D01*
X35860Y18212D01*
X35793Y18111D01*
X35783Y18064D01*
X35012D01*
X34569Y18507D01*
X34618Y18624D01*
X35051D01*
X35170Y18648D01*
X35271Y18715D01*
X35338Y18816D01*
X35362Y18935D01*
Y19063D01*
X35775D01*
X35793Y18973D01*
X35860Y18872D01*
X35961Y18805D01*
X36080Y18781D01*
X37580D01*
X37699Y18805D01*
X37800Y18872D01*
X37867Y18973D01*
X37885Y19063D01*
X38425D01*
Y18935D01*
X38449Y18816D01*
X38516Y18715D01*
X38617Y18648D01*
X38736Y18624D01*
X39836D01*
X39955Y18648D01*
X40056Y18715D01*
X40123Y18816D01*
X40147Y18935D01*
Y20435D01*
X40123Y20554D01*
X40056Y20655D01*
X39955Y20722D01*
X39836Y20746D01*
X38736D01*
X38617Y20722D01*
X38516Y20655D01*
X38449Y20554D01*
X38425Y20435D01*
Y20307D01*
X37868D01*
X37867Y20311D01*
X37800Y20412D01*
X37699Y20479D01*
X37580Y20503D01*
X36080D01*
X35961Y20479D01*
X35860Y20412D01*
X35793Y20311D01*
X35792Y20307D01*
X35362D01*
Y20435D01*
X35338Y20554D01*
X35271Y20655D01*
X35170Y20722D01*
X35051Y20746D01*
X34023D01*
Y21586D01*
X34104Y21692D01*
X34185Y21888D01*
X34213Y22098D01*
X34185Y22308D01*
X34104Y22504D01*
X33975Y22672D01*
X33807Y22801D01*
X33611Y22882D01*
X33483Y22899D01*
X33437Y23033D01*
X34475Y24072D01*
X34610Y24273D01*
X34658Y24511D01*
Y26159D01*
X35055Y26556D01*
X36393D01*
Y26428D01*
D02*
G37*
G36*
X61514Y19661D02*
X61484Y19431D01*
X61522Y19139D01*
X61635Y18867D01*
X61722Y18754D01*
X61659Y18627D01*
X61214D01*
X61036Y18592D01*
X60884Y18491D01*
X60640Y18246D01*
X55450D01*
X54026Y19670D01*
X54074Y19788D01*
X61424D01*
X61514Y19661D01*
D02*
G37*
G36*
X25703Y28327D02*
X25708Y28319D01*
X25809Y28252D01*
X25928Y28228D01*
X26408D01*
X26460Y28101D01*
X25788Y27430D01*
X25654Y27228D01*
X25606Y26990D01*
Y26289D01*
Y25572D01*
X25528D01*
X25409Y25548D01*
X25308Y25481D01*
X25241Y25380D01*
X25217Y25261D01*
Y23761D01*
X25241Y23642D01*
X25308Y23541D01*
X25409Y23474D01*
X25456Y23464D01*
Y23198D01*
X25504Y22960D01*
X25639Y22758D01*
X26358Y22039D01*
X26559Y21905D01*
X26797Y21857D01*
X29714D01*
X29820Y21776D01*
X30016Y21695D01*
X29986Y21577D01*
X28702D01*
X28464Y21529D01*
X28447Y21518D01*
X28437Y21524D01*
X28199Y21572D01*
X25450D01*
X25411Y21699D01*
X25539Y21784D01*
X25673Y21984D01*
X25720Y22220D01*
X25673Y22456D01*
X25539Y22656D01*
X25339Y22790D01*
X25103Y22837D01*
X23553D01*
X23439Y22814D01*
X23312Y22918D01*
Y23464D01*
X23359Y23474D01*
X23460Y23541D01*
X23527Y23642D01*
X23551Y23761D01*
Y25261D01*
X23527Y25380D01*
X23460Y25481D01*
X23359Y25548D01*
X23312Y25558D01*
Y27869D01*
X23380Y27925D01*
X24880D01*
X24999Y27949D01*
X25100Y28016D01*
X25167Y28117D01*
X25180Y28180D01*
X25341Y28212D01*
X25542Y28347D01*
X25703Y28327D01*
D02*
G37*
G36*
X47447Y25841D02*
X47450Y25841D01*
Y25711D01*
X47447Y25711D01*
X47247Y25577D01*
X47113Y25377D01*
X47066Y25141D01*
X47113Y24905D01*
X47247Y24705D01*
X47447Y24571D01*
X47683Y24524D01*
X49233D01*
X49469Y24571D01*
X49624Y24675D01*
X50367D01*
X52620Y22422D01*
Y20863D01*
X52557Y20786D01*
X50298D01*
X50232Y20913D01*
X50307Y21093D01*
X50339Y21336D01*
X50307Y21579D01*
X50213Y21805D01*
X50064Y21999D01*
X49870Y22148D01*
X49644Y22242D01*
X49401Y22274D01*
X49151D01*
X48908Y22242D01*
X48880Y22230D01*
X46794Y24316D01*
X46593Y24450D01*
X46538Y24461D01*
Y24626D01*
X46514Y24745D01*
X46447Y24846D01*
X46346Y24913D01*
X46227Y24937D01*
X45874D01*
X45862Y25064D01*
X46025Y25096D01*
X46177Y25197D01*
X46924Y25945D01*
X47292D01*
X47447Y25841D01*
D02*
G37*
G36*
X19644Y19106D02*
X19741Y19054D01*
Y17049D01*
X19694Y17039D01*
X19593Y16972D01*
X19526Y16871D01*
X19502Y16752D01*
Y15252D01*
X19526Y15133D01*
X19577Y15057D01*
X19549Y14969D01*
X19521Y14930D01*
X18969D01*
X16264Y17635D01*
X16308Y17771D01*
X16363Y17782D01*
X16464Y17849D01*
X16531Y17950D01*
X16555Y18069D01*
Y19058D01*
X18613D01*
X18638Y19063D01*
X19388D01*
X19614Y19108D01*
X19644Y19106D01*
D02*
G37*
G36*
X31508Y14338D02*
X31664D01*
X31684Y14240D01*
X31819Y14038D01*
X32410Y13446D01*
X32612Y13312D01*
X32850Y13264D01*
X35783D01*
X35793Y13217D01*
X35860Y13116D01*
X35961Y13049D01*
X36080Y13025D01*
X37126D01*
X37175Y12908D01*
X36894Y12626D01*
X36759Y12425D01*
X36711Y12187D01*
Y10851D01*
X36716Y10826D01*
Y10076D01*
X36763Y9840D01*
X36897Y9640D01*
X37097Y9506D01*
X37333Y9459D01*
X37569Y9506D01*
X37769Y9640D01*
X37854Y9768D01*
X37981Y9729D01*
Y9403D01*
X38029Y9165D01*
X38164Y8964D01*
X38551Y8576D01*
X38503Y8458D01*
X37159D01*
X31384Y14233D01*
X31446Y14350D01*
X31508Y14338D01*
D02*
G37*
G36*
X59645Y9961D02*
X59622Y9931D01*
X59541Y9735D01*
X59513Y9525D01*
X59541Y9315D01*
X59622Y9119D01*
X59751Y8951D01*
X59859Y8868D01*
Y8194D01*
X57465Y5800D01*
X55900D01*
X55851Y5927D01*
X55930Y6045D01*
X55965Y6223D01*
Y7935D01*
X58105Y10075D01*
X59589D01*
X59645Y9961D01*
D02*
G37*
G36*
X31056Y13243D02*
X30999Y13129D01*
X30988Y13131D01*
X30778Y13103D01*
X30582Y13022D01*
X30414Y12893D01*
X30285Y12725D01*
X30204Y12529D01*
X30176Y12319D01*
X30204Y12109D01*
X30285Y11913D01*
X30414Y11745D01*
X30582Y11616D01*
X30778Y11535D01*
X30988Y11507D01*
X31198Y11535D01*
X31394Y11616D01*
X31562Y11745D01*
X31588Y11779D01*
X31749Y11788D01*
X36067Y7470D01*
X36018Y7353D01*
X34928D01*
X34813Y7468D01*
X34612Y7602D01*
X34374Y7650D01*
X34194D01*
X34184Y7697D01*
X34117Y7798D01*
X34016Y7865D01*
X33897Y7889D01*
X32397D01*
X32278Y7865D01*
X32177Y7798D01*
X32110Y7697D01*
X32092Y7607D01*
X30991D01*
X30538Y8059D01*
X30337Y8194D01*
X30099Y8242D01*
X28832D01*
X28689Y8385D01*
Y8591D01*
X29717D01*
X29836Y8615D01*
X29937Y8682D01*
X30004Y8783D01*
X30028Y8902D01*
Y9030D01*
X30650D01*
X30666Y8992D01*
X30795Y8824D01*
X30963Y8695D01*
X31159Y8614D01*
X31369Y8586D01*
X31579Y8614D01*
X31775Y8695D01*
X31943Y8824D01*
X32072Y8992D01*
X32153Y9188D01*
X32181Y9398D01*
X32153Y9608D01*
X32072Y9804D01*
X31943Y9972D01*
X31775Y10101D01*
X31579Y10182D01*
X31380Y10208D01*
X31353Y10226D01*
X31115Y10274D01*
X30028D01*
Y10402D01*
X30004Y10521D01*
X29937Y10622D01*
X29836Y10689D01*
X29789Y10699D01*
Y12796D01*
X29836Y12806D01*
X29937Y12873D01*
X30004Y12974D01*
X30028Y13093D01*
Y14105D01*
X30145Y14154D01*
X31056Y13243D01*
D02*
G37*
G36*
X54788Y16942D02*
X54940Y16841D01*
X55118Y16806D01*
X60640D01*
X60884Y16561D01*
X61036Y16460D01*
X61214Y16425D01*
X61320D01*
X61368Y16308D01*
X59995Y14935D01*
X59894Y14783D01*
X59859Y14605D01*
Y13484D01*
X59751Y13401D01*
X59622Y13233D01*
X59541Y13037D01*
X59513Y12827D01*
X59541Y12617D01*
X59622Y12421D01*
X59645Y12391D01*
X59589Y12277D01*
X54229D01*
X54051Y12242D01*
X53899Y12141D01*
X52875Y11117D01*
X52798Y11001D01*
X52671Y11040D01*
Y15055D01*
X53035Y15418D01*
X53136Y15570D01*
X53171Y15748D01*
Y17250D01*
X53279Y17333D01*
X53408Y17501D01*
X53489Y17697D01*
X53517Y17907D01*
X53497Y18054D01*
X53618Y18113D01*
X54788Y16942D01*
D02*
G37*
G36*
X49502Y32758D02*
X49481Y32593D01*
X49414Y32492D01*
X49390Y32373D01*
Y30873D01*
X49414Y30754D01*
X49440Y30715D01*
X49438Y30568D01*
X49424Y30539D01*
X49371Y30460D01*
X49347Y30341D01*
Y28841D01*
X49371Y28722D01*
X49438Y28621D01*
X49539Y28554D01*
X49586Y28544D01*
Y28336D01*
X49533Y28292D01*
X47383D01*
X47264Y28268D01*
X47163Y28201D01*
X47096Y28100D01*
X47072Y27981D01*
Y27381D01*
X47096Y27262D01*
X47163Y27161D01*
X47264Y27094D01*
X47359Y27075D01*
X47387Y27011D01*
X47391Y26943D01*
X47292Y26877D01*
X46731D01*
X46553Y26842D01*
X46401Y26741D01*
X45654Y25993D01*
X44095D01*
X44083Y26120D01*
X44187Y26141D01*
X44288Y26208D01*
X44355Y26309D01*
X44379Y26428D01*
Y27928D01*
X44355Y28047D01*
X44288Y28148D01*
X44187Y28215D01*
X44068Y28239D01*
X42968D01*
X42849Y28215D01*
X42748Y28148D01*
X42681Y28047D01*
X42657Y27928D01*
Y27644D01*
X42545D01*
X42367Y27609D01*
X42215Y27508D01*
X42088Y27381D01*
X41987Y27229D01*
X41952Y27051D01*
Y26482D01*
X41447Y25977D01*
X40456D01*
X40444Y25975D01*
X39956D01*
X39779Y25939D01*
X39628Y25839D01*
X39528Y25688D01*
X39492Y25511D01*
X39528Y25334D01*
X39628Y25183D01*
X39779Y25083D01*
X39813Y25076D01*
Y24946D01*
X39779Y24939D01*
X39628Y24839D01*
X39528Y24688D01*
X39492Y24511D01*
X39528Y24334D01*
X39576Y24261D01*
X39528Y24188D01*
X39492Y24011D01*
X39465Y23977D01*
X39277D01*
X38243Y25011D01*
X38557Y25324D01*
X38658Y25476D01*
X38693Y25654D01*
Y26924D01*
X38658Y27102D01*
X38557Y27254D01*
X38303Y27508D01*
X38151Y27609D01*
X38115Y27616D01*
Y27928D01*
X38091Y28047D01*
X38024Y28148D01*
X37923Y28215D01*
X37876Y28225D01*
Y28417D01*
X37923Y28427D01*
X38024Y28494D01*
X38091Y28595D01*
X38115Y28714D01*
Y30214D01*
X38091Y30333D01*
X38024Y30434D01*
X37923Y30501D01*
X37876Y30511D01*
Y30647D01*
X40008Y32779D01*
X49487D01*
X49502Y32758D01*
D02*
G37*
G36*
X61549Y35756D02*
X61567Y35687D01*
X61511Y35603D01*
X61487Y35484D01*
Y35293D01*
X59944D01*
X59706Y35245D01*
X59505Y35111D01*
X58417Y34023D01*
X39751D01*
X39513Y33975D01*
X39312Y33840D01*
X36814Y31344D01*
X36680Y31142D01*
X36632Y30904D01*
Y30511D01*
X36585Y30501D01*
X36484Y30434D01*
X36417Y30333D01*
X36393Y30214D01*
Y28714D01*
X36417Y28595D01*
X36484Y28494D01*
X36585Y28427D01*
X36632Y28417D01*
Y28225D01*
X36585Y28215D01*
X36484Y28148D01*
X36417Y28047D01*
X36393Y27928D01*
Y27800D01*
X34798D01*
X34560Y27752D01*
X34359Y27618D01*
X33597Y26855D01*
X33462Y26654D01*
X33414Y26416D01*
Y24768D01*
X31161Y22515D01*
X31027Y22561D01*
X31010Y22689D01*
X30929Y22885D01*
X30800Y23053D01*
X30632Y23182D01*
X30436Y23263D01*
X30226Y23291D01*
X30016Y23263D01*
X29820Y23182D01*
X29714Y23101D01*
X27054D01*
X26792Y23363D01*
X26792Y23363D01*
X26815Y23519D01*
X26848Y23541D01*
X26915Y23642D01*
X26939Y23761D01*
Y25261D01*
X26915Y25380D01*
X26850Y25478D01*
Y26733D01*
X27308Y27191D01*
X27578D01*
X27617Y27064D01*
X27608Y27059D01*
X27541Y26958D01*
X27517Y26839D01*
Y26343D01*
X27506Y26289D01*
Y25478D01*
X27441Y25380D01*
X27417Y25261D01*
Y23761D01*
X27441Y23642D01*
X27508Y23541D01*
X27609Y23474D01*
X27728Y23450D01*
X28828D01*
X28947Y23474D01*
X29048Y23541D01*
X29115Y23642D01*
X29139Y23761D01*
Y23889D01*
X29442D01*
X29443Y23885D01*
X29510Y23784D01*
X29611Y23717D01*
X29730Y23693D01*
X31230D01*
X31349Y23717D01*
X31450Y23784D01*
X31517Y23885D01*
X31541Y24004D01*
Y25104D01*
X31517Y25223D01*
X31450Y25324D01*
X31349Y25391D01*
X31230Y25415D01*
X29730D01*
X29611Y25391D01*
X29510Y25324D01*
X29443Y25223D01*
X29425Y25133D01*
X29139D01*
Y25261D01*
X29115Y25380D01*
X29048Y25481D01*
X28947Y25548D01*
X28828Y25572D01*
X28750D01*
Y26289D01*
X28739Y26343D01*
Y26839D01*
X28715Y26958D01*
X28648Y27059D01*
X28547Y27126D01*
X28428Y27150D01*
X28146D01*
X28108Y27277D01*
X28253Y27374D01*
X28567Y27688D01*
X28702Y27890D01*
X28750Y28128D01*
Y29089D01*
Y29800D01*
X28828D01*
X28947Y29824D01*
X29048Y29891D01*
X29115Y29992D01*
X29139Y30111D01*
Y31611D01*
X29115Y31730D01*
X29059Y31813D01*
X29115Y31897D01*
X29139Y32016D01*
Y33516D01*
X29115Y33635D01*
X29048Y33736D01*
X28947Y33803D01*
X28828Y33827D01*
X27728D01*
X27609Y33803D01*
X27508Y33736D01*
X27441Y33635D01*
X27417Y33516D01*
Y32016D01*
X27441Y31897D01*
X27497Y31813D01*
X27441Y31730D01*
X27417Y31611D01*
Y30111D01*
X27441Y29992D01*
X27506Y29894D01*
Y29089D01*
Y28435D01*
X27051D01*
X26943Y28413D01*
X26835Y28521D01*
X26839Y28539D01*
Y29035D01*
X26850Y29089D01*
X26839Y29143D01*
Y29639D01*
X26815Y29758D01*
X26748Y29859D01*
X26647Y29926D01*
X26528Y29950D01*
X25928D01*
X25809Y29926D01*
X25708Y29859D01*
X25641Y29758D01*
X25631Y29711D01*
X25406D01*
X25168Y29663D01*
X25054Y29587D01*
X24999Y29623D01*
X24880Y29647D01*
X24752D01*
Y32258D01*
X24704Y32496D01*
X24569Y32697D01*
X23851Y33417D01*
X23649Y33551D01*
X23411Y33599D01*
X19081D01*
X19071Y33646D01*
X19004Y33747D01*
X18903Y33814D01*
X18784Y33838D01*
X17284D01*
X17165Y33814D01*
X17064Y33747D01*
X16997Y33646D01*
X16973Y33527D01*
Y32427D01*
X16997Y32308D01*
X17064Y32207D01*
X17165Y32140D01*
X17284Y32116D01*
X18784D01*
X18903Y32140D01*
X19004Y32207D01*
X19071Y32308D01*
X19081Y32355D01*
X23154D01*
X23508Y32001D01*
Y29647D01*
X23380D01*
X23261Y29623D01*
X23160Y29556D01*
X23093Y29455D01*
X23083Y29408D01*
X22944D01*
X22706Y29360D01*
X22504Y29226D01*
X22250Y28972D01*
X22116Y28770D01*
X22068Y28532D01*
Y25558D01*
X22021Y25548D01*
X21920Y25481D01*
X21853Y25380D01*
X21829Y25261D01*
Y23761D01*
X21853Y23642D01*
X21920Y23541D01*
X22021Y23474D01*
X22068Y23464D01*
Y21506D01*
X22116Y21268D01*
X22250Y21066D01*
X22807Y20510D01*
X22938Y20422D01*
X22912Y20288D01*
X22744Y20254D01*
X22542Y20119D01*
X22124Y19701D01*
X21989Y19499D01*
X21941Y19261D01*
Y17049D01*
X21894Y17039D01*
X21793Y16972D01*
X21726Y16871D01*
X21702Y16752D01*
Y15252D01*
X21726Y15133D01*
X21777Y15057D01*
X21749Y14969D01*
X21721Y14930D01*
X21205D01*
X21177Y14969D01*
X21149Y15057D01*
X21200Y15133D01*
X21224Y15252D01*
Y16752D01*
X21200Y16871D01*
X21133Y16972D01*
X21032Y17039D01*
X20985Y17049D01*
Y20277D01*
X20937Y20515D01*
X20802Y20716D01*
X20129Y21389D01*
X19928Y21524D01*
X19886Y21533D01*
X19859Y21667D01*
X19908Y21700D01*
X19975Y21801D01*
X19999Y21920D01*
Y22520D01*
X19975Y22639D01*
X19908Y22740D01*
X19807Y22807D01*
X19688Y22831D01*
X17538D01*
X17419Y22807D01*
X17318Y22740D01*
X17251Y22639D01*
X17227Y22520D01*
Y21920D01*
X17251Y21801D01*
X17318Y21700D01*
X17321Y21699D01*
X17282Y21572D01*
X16475D01*
X16464Y21589D01*
X16363Y21656D01*
X16244Y21680D01*
X16116D01*
Y21840D01*
X16197Y21946D01*
X16278Y22142D01*
X16306Y22352D01*
X16278Y22562D01*
X16197Y22758D01*
X16068Y22926D01*
X15900Y23055D01*
X15704Y23136D01*
X15494Y23164D01*
X15284Y23136D01*
X15088Y23055D01*
X14920Y22926D01*
X14791Y22758D01*
X14788Y22750D01*
X14661Y22775D01*
Y23356D01*
X14637Y23475D01*
X14570Y23576D01*
X14469Y23643D01*
X14350Y23667D01*
X13250D01*
X13131Y23643D01*
X13030Y23576D01*
X12963Y23475D01*
X12939Y23356D01*
Y21856D01*
X12963Y21737D01*
X13030Y21636D01*
X13131Y21569D01*
X13178Y21559D01*
Y20363D01*
X13226Y20125D01*
X13361Y19924D01*
X14043Y19240D01*
X14245Y19106D01*
X14433Y19068D01*
Y18069D01*
X14457Y17950D01*
X14524Y17849D01*
X14625Y17782D01*
X14744Y17758D01*
X14872D01*
Y17526D01*
X14920Y17288D01*
X15054Y17087D01*
X18272Y13868D01*
X18474Y13734D01*
X18712Y13686D01*
X22563D01*
X22801Y13734D01*
X23003Y13868D01*
X23137Y14070D01*
X23185Y14308D01*
Y14955D01*
X23232Y14965D01*
X23333Y15032D01*
X23400Y15133D01*
X23424Y15252D01*
Y15380D01*
X25015D01*
X25121Y15299D01*
X25317Y15218D01*
X25527Y15190D01*
X25737Y15218D01*
X25933Y15299D01*
X26101Y15428D01*
X26230Y15596D01*
X26311Y15792D01*
X26339Y16002D01*
X26311Y16212D01*
X26230Y16408D01*
X26101Y16576D01*
X25933Y16705D01*
X25737Y16786D01*
X25527Y16814D01*
X25317Y16786D01*
X25121Y16705D01*
X25015Y16624D01*
X23424D01*
Y16752D01*
X23400Y16871D01*
X23333Y16972D01*
X23232Y17039D01*
X23185Y17049D01*
Y17794D01*
X23297Y17854D01*
X23317Y17840D01*
X23553Y17793D01*
X25103D01*
X25339Y17840D01*
X25539Y17974D01*
X25673Y18174D01*
X25720Y18410D01*
X25673Y18646D01*
X25539Y18846D01*
X25411Y18931D01*
X25450Y19058D01*
X26487D01*
Y18935D01*
X26511Y18816D01*
X26578Y18715D01*
X26679Y18648D01*
X26798Y18624D01*
X27826D01*
Y16513D01*
X26528Y15215D01*
X26393Y15013D01*
X26369Y14894D01*
X26298Y14880D01*
X26197Y14813D01*
X26130Y14712D01*
X26106Y14593D01*
Y14465D01*
X25908D01*
X25670Y14417D01*
X25469Y14283D01*
X24764Y13578D01*
X24629Y13376D01*
X24581Y13138D01*
Y12325D01*
X24533Y12293D01*
X24501Y12245D01*
X17846D01*
X17608Y12197D01*
X17406Y12062D01*
X17331Y11987D01*
X17214Y12036D01*
Y12068D01*
X17190Y12187D01*
X17123Y12288D01*
X17022Y12355D01*
X16903Y12379D01*
X16003D01*
X15884Y12355D01*
X15804Y12301D01*
X15767Y12303D01*
X15731Y12314D01*
X15669Y12346D01*
X15653Y12426D01*
X15586Y12527D01*
X15485Y12594D01*
X15366Y12618D01*
X14266D01*
X14147Y12594D01*
X14046Y12527D01*
X13979Y12426D01*
X13955Y12307D01*
Y10807D01*
X13979Y10688D01*
X14035Y10604D01*
X13979Y10521D01*
X13955Y10402D01*
Y8902D01*
X13979Y8783D01*
X14035Y8700D01*
X13979Y8616D01*
X13955Y8497D01*
Y6997D01*
X13979Y6878D01*
X14046Y6777D01*
X14147Y6710D01*
X14266Y6686D01*
X15366D01*
X15485Y6710D01*
X15586Y6777D01*
X15653Y6878D01*
X15677Y6997D01*
Y7125D01*
X15802D01*
X15884Y7071D01*
X16003Y7047D01*
X16903D01*
X17022Y7071D01*
X17123Y7138D01*
X17190Y7239D01*
X17214Y7358D01*
Y8258D01*
X17190Y8377D01*
X17123Y8478D01*
X17022Y8545D01*
X16903Y8569D01*
X16003D01*
X15884Y8545D01*
X15804Y8491D01*
X15767Y8493D01*
X15731Y8504D01*
X15669Y8536D01*
X15653Y8616D01*
X15597Y8700D01*
X15653Y8783D01*
X15677Y8902D01*
Y9030D01*
X15802D01*
X15884Y8976D01*
X16003Y8952D01*
X16903D01*
X17022Y8976D01*
X17123Y9043D01*
X17190Y9144D01*
X17214Y9263D01*
Y9595D01*
X17655Y10036D01*
X17816Y10017D01*
X17830Y9996D01*
X17931Y9929D01*
X18050Y9905D01*
X18053D01*
Y9283D01*
X17966Y9169D01*
X17885Y8973D01*
X17857Y8763D01*
X17885Y8553D01*
X17966Y8357D01*
X18053Y8243D01*
Y7617D01*
X18050D01*
X17931Y7593D01*
X17830Y7526D01*
X17763Y7425D01*
X17739Y7306D01*
Y6406D01*
X17763Y6287D01*
X17830Y6186D01*
X17931Y6119D01*
X18050Y6095D01*
X19300D01*
X19419Y6119D01*
X19520Y6186D01*
X19587Y6287D01*
X19611Y6406D01*
Y7306D01*
X19587Y7425D01*
X19520Y7526D01*
X19419Y7593D01*
X19300Y7617D01*
X19297D01*
Y8259D01*
X19372Y8357D01*
X19453Y8553D01*
X19481Y8763D01*
X19453Y8973D01*
X19372Y9169D01*
X19297Y9267D01*
Y9905D01*
X19300D01*
X19419Y9929D01*
X19520Y9996D01*
X19587Y10097D01*
X19611Y10216D01*
Y11001D01*
X22045D01*
Y10220D01*
X22069Y10101D01*
X22136Y10000D01*
X22237Y9933D01*
X22356Y9909D01*
X22359D01*
Y9267D01*
X22284Y9169D01*
X22203Y8973D01*
X22175Y8763D01*
X22203Y8553D01*
X22284Y8357D01*
X22359Y8259D01*
Y7621D01*
X22356D01*
X22237Y7597D01*
X22136Y7530D01*
X22069Y7429D01*
X22045Y7310D01*
Y6410D01*
X22069Y6291D01*
X22136Y6190D01*
X22237Y6123D01*
X22356Y6099D01*
X23606D01*
X23635Y6075D01*
Y4529D01*
X23683Y4291D01*
X23817Y4089D01*
X24242Y3665D01*
Y2933D01*
X24266Y2814D01*
X24333Y2713D01*
X24434Y2646D01*
X24553Y2622D01*
X25653D01*
X25772Y2646D01*
X25873Y2713D01*
X25940Y2814D01*
X25964Y2933D01*
Y4433D01*
X25940Y4552D01*
X25873Y4653D01*
X25772Y4720D01*
X25653Y4744D01*
X24921D01*
X24879Y4786D01*
Y5147D01*
X25653D01*
X25772Y5171D01*
X25873Y5238D01*
X25905Y5286D01*
X26106D01*
Y5219D01*
X26130Y5100D01*
X26197Y4999D01*
X26298Y4932D01*
X26417Y4908D01*
X27517D01*
X27636Y4932D01*
X27737Y4999D01*
X27804Y5100D01*
X27828Y5219D01*
Y6719D01*
X27804Y6838D01*
X27737Y6939D01*
X27636Y7006D01*
X27517Y7030D01*
X26417D01*
X26298Y7006D01*
X26197Y6939D01*
X26130Y6838D01*
X26106Y6719D01*
Y6530D01*
X25905D01*
X25873Y6578D01*
X25772Y6645D01*
X25653Y6669D01*
X24879D01*
Y7052D01*
X25653D01*
X25772Y7076D01*
X25873Y7143D01*
X25940Y7244D01*
X25964Y7363D01*
Y8263D01*
X25940Y8382D01*
X25873Y8483D01*
X25772Y8550D01*
X25653Y8574D01*
X24753D01*
X24634Y8550D01*
X24533Y8483D01*
X24470Y8388D01*
X24466Y8387D01*
X24264Y8252D01*
X23817Y7806D01*
X23730Y7674D01*
X23603Y7712D01*
Y8243D01*
X23690Y8357D01*
X23771Y8553D01*
X23799Y8763D01*
X23771Y8973D01*
X23690Y9169D01*
X23603Y9283D01*
Y9909D01*
X23606D01*
X23725Y9933D01*
X23826Y10000D01*
X23893Y10101D01*
X23917Y10220D01*
Y11001D01*
X24501D01*
X24533Y10953D01*
X24634Y10886D01*
X24753Y10862D01*
X25653D01*
X25772Y10886D01*
X25873Y10953D01*
X25905Y11001D01*
X27363D01*
X27445Y10919D01*
Y10713D01*
X26417D01*
X26298Y10689D01*
X26197Y10622D01*
X26130Y10521D01*
X26106Y10402D01*
Y10340D01*
X25905D01*
X25873Y10388D01*
X25772Y10455D01*
X25653Y10479D01*
X24753D01*
X24634Y10455D01*
X24533Y10388D01*
X24466Y10287D01*
X24442Y10168D01*
Y9268D01*
X24466Y9149D01*
X24533Y9048D01*
X24634Y8981D01*
X24753Y8957D01*
X25653D01*
X25772Y8981D01*
X25873Y9048D01*
X25905Y9096D01*
X26106D01*
Y8902D01*
X26130Y8783D01*
X26197Y8682D01*
X26298Y8615D01*
X26417Y8591D01*
X27445D01*
Y8128D01*
X27493Y7890D01*
X27628Y7688D01*
X28135Y7181D01*
X28337Y7046D01*
X28349Y7025D01*
X28377Y6908D01*
X28330Y6838D01*
X28306Y6719D01*
Y5219D01*
X28330Y5100D01*
X28397Y4999D01*
X28398Y4999D01*
X28371Y4864D01*
X28341Y4858D01*
X28240Y4791D01*
X28173Y4690D01*
X28149Y4571D01*
Y3471D01*
X28173Y3352D01*
X28240Y3251D01*
X28341Y3184D01*
X28460Y3160D01*
X29960D01*
X30079Y3184D01*
X30180Y3251D01*
X30247Y3352D01*
X30271Y3471D01*
Y4571D01*
X30247Y4690D01*
X30180Y4791D01*
X30079Y4858D01*
X29983Y4877D01*
X29951Y4951D01*
X29943Y5009D01*
X30004Y5100D01*
X30142Y5140D01*
X30522Y4760D01*
Y2286D01*
X30557Y2108D01*
X30658Y1956D01*
X31142Y1472D01*
X31094Y1355D01*
X11889D01*
X11591Y1652D01*
Y4630D01*
X11689Y4698D01*
X11718Y4705D01*
X11823Y4684D01*
X13323D01*
X13442Y4708D01*
X13543Y4775D01*
X13610Y4876D01*
X13634Y4995D01*
Y6095D01*
X13610Y6214D01*
X13543Y6315D01*
X13442Y6382D01*
X13323Y6406D01*
X13238D01*
Y6700D01*
X13285Y6710D01*
X13386Y6777D01*
X13453Y6878D01*
X13477Y6997D01*
Y8497D01*
X13453Y8616D01*
X13397Y8700D01*
X13453Y8783D01*
X13477Y8902D01*
Y10402D01*
X13453Y10521D01*
X13397Y10604D01*
X13453Y10688D01*
X13477Y10807D01*
Y12307D01*
X13453Y12426D01*
X13386Y12527D01*
X13285Y12594D01*
X13166Y12618D01*
X12066D01*
X11947Y12594D01*
X11846Y12527D01*
X11779Y12426D01*
X11755Y12307D01*
Y10807D01*
X11779Y10688D01*
X11835Y10604D01*
X11779Y10521D01*
X11755Y10402D01*
Y10118D01*
X10922D01*
X10744Y10083D01*
X10592Y9982D01*
X10338Y9728D01*
X10237Y9576D01*
X10202Y9398D01*
Y7551D01*
X10078Y7523D01*
X10032Y7616D01*
X9712Y8095D01*
X9331Y8529D01*
X8897Y8910D01*
X8418Y9230D01*
X7900Y9485D01*
X7354Y9671D01*
X6788Y9784D01*
X6212Y9821D01*
X5636Y9784D01*
X5070Y9671D01*
X4524Y9485D01*
X4006Y9230D01*
X3527Y8910D01*
X3093Y8529D01*
X2712Y8095D01*
X2392Y7616D01*
X2137Y7098D01*
X1951Y6552D01*
X1838Y5986D01*
X1801Y5410D01*
X1838Y4834D01*
X1951Y4268D01*
X2137Y3722D01*
X2392Y3204D01*
X2712Y2725D01*
X3093Y2291D01*
X3527Y1910D01*
X4006Y1590D01*
X4524Y1335D01*
X5070Y1149D01*
X5636Y1036D01*
X6212Y999D01*
X6788Y1036D01*
X7354Y1149D01*
X7900Y1335D01*
X8418Y1590D01*
X8897Y1910D01*
X9331Y2291D01*
X9712Y2725D01*
X10032Y3204D01*
X10078Y3297D01*
X10202Y3269D01*
Y1270D01*
X10237Y1092D01*
X10338Y940D01*
X11034Y244D01*
X10986Y127D01*
X127D01*
Y35814D01*
X61515Y35814D01*
X61549Y35756D01*
D02*
G37*
G36*
X64135Y17970D02*
X64018Y17922D01*
X63449Y18491D01*
X63421Y18509D01*
X63427Y18658D01*
X63587Y18867D01*
X63700Y19139D01*
X63738Y19431D01*
X63700Y19723D01*
X63587Y19995D01*
X63408Y20228D01*
X63175Y20407D01*
X62903Y20520D01*
X62611Y20558D01*
X62319Y20520D01*
X62222Y20479D01*
X62118Y20583D01*
X61967Y20684D01*
X61788Y20720D01*
X57991D01*
X57935Y20834D01*
X57960Y20867D01*
X58054Y21093D01*
X58086Y21336D01*
X58054Y21579D01*
X57960Y21805D01*
X57811Y21999D01*
X57645Y22127D01*
Y25146D01*
Y27940D01*
X57597Y28178D01*
X57463Y28379D01*
X55812Y30031D01*
X55610Y30165D01*
X55372Y30213D01*
X53269D01*
Y30341D01*
X53245Y30460D01*
X53219Y30499D01*
X53221Y30646D01*
X53235Y30675D01*
X53288Y30754D01*
X53312Y30873D01*
Y32373D01*
X53288Y32492D01*
X53221Y32593D01*
X53200Y32758D01*
X53215Y32779D01*
X58674D01*
X58912Y32827D01*
X59113Y32961D01*
X60201Y34049D01*
X61487D01*
Y33858D01*
X61511Y33739D01*
X61578Y33638D01*
X61679Y33571D01*
X61798Y33547D01*
X63424D01*
X63543Y33571D01*
X63644Y33638D01*
X63711Y33739D01*
X63735Y33858D01*
Y35484D01*
X63711Y35603D01*
X63655Y35687D01*
X63673Y35756D01*
X63707Y35814D01*
X64135D01*
Y17970D01*
D02*
G37*
%LPC*%
G36*
X50026Y14652D02*
X48526D01*
X48407Y14628D01*
X48306Y14561D01*
X48239Y14460D01*
X48215Y14341D01*
Y14338D01*
X47879D01*
X47641Y14290D01*
X47439Y14156D01*
X47186Y13901D01*
X47051Y13700D01*
X47003Y13462D01*
Y11994D01*
X46875D01*
X46756Y11970D01*
X46655Y11903D01*
X46588Y11802D01*
X46564Y11683D01*
Y10583D01*
X46588Y10464D01*
X46655Y10363D01*
X46756Y10296D01*
X46875Y10272D01*
X48375D01*
X48494Y10296D01*
X48595Y10363D01*
X48662Y10464D01*
X48686Y10583D01*
Y11683D01*
X48662Y11802D01*
X48595Y11903D01*
X48494Y11970D01*
X48375Y11994D01*
X48247D01*
Y12758D01*
X48374Y12826D01*
X48407Y12804D01*
X48526Y12780D01*
X50026D01*
X50145Y12804D01*
X50246Y12871D01*
X50313Y12972D01*
X50337Y13091D01*
Y14341D01*
X50313Y14460D01*
X50246Y14561D01*
X50145Y14628D01*
X50026Y14652D01*
D02*
G37*
G36*
X57773D02*
X56273D01*
X56154Y14628D01*
X56053Y14561D01*
X55986Y14460D01*
X55962Y14341D01*
Y13091D01*
X55986Y12972D01*
X56053Y12871D01*
X56154Y12804D01*
X56273Y12780D01*
X57773D01*
X57892Y12804D01*
X57993Y12871D01*
X58060Y12972D01*
X58084Y13091D01*
Y14341D01*
X58060Y14460D01*
X57993Y14561D01*
X57892Y14628D01*
X57773Y14652D01*
D02*
G37*
G36*
X8240Y13531D02*
X6640D01*
X6521Y13507D01*
X6420Y13440D01*
X6353Y13339D01*
X6329Y13220D01*
Y11620D01*
X6353Y11501D01*
X6420Y11400D01*
X6521Y11333D01*
X6640Y11309D01*
X8240D01*
X8359Y11333D01*
X8460Y11400D01*
X8527Y11501D01*
X8551Y11620D01*
Y13220D01*
X8527Y13339D01*
X8460Y13440D01*
X8359Y13507D01*
X8240Y13531D01*
D02*
G37*
G36*
X16903Y6664D02*
X16003D01*
X15884Y6640D01*
X15783Y6573D01*
X15716Y6472D01*
X15692Y6353D01*
Y5453D01*
X15716Y5334D01*
X15783Y5233D01*
X15831Y5201D01*
Y4735D01*
X15757Y4720D01*
X15656Y4653D01*
X15589Y4552D01*
X15565Y4433D01*
Y2933D01*
X15589Y2814D01*
X15656Y2713D01*
X15757Y2646D01*
X15876Y2622D01*
X16976D01*
X17095Y2646D01*
X17196Y2713D01*
X17263Y2814D01*
X17287Y2933D01*
Y4433D01*
X17263Y4552D01*
X17196Y4653D01*
X17095Y4720D01*
X17075Y4724D01*
Y5201D01*
X17123Y5233D01*
X17190Y5334D01*
X17214Y5453D01*
Y6353D01*
X17190Y6472D01*
X17123Y6573D01*
X17022Y6640D01*
X16903Y6664D01*
D02*
G37*
G36*
X6212Y34817D02*
X5636Y34779D01*
X5070Y34667D01*
X4523Y34481D01*
X4005Y34226D01*
X3525Y33905D01*
X3091Y33524D01*
X2710Y33090D01*
X2389Y32610D01*
X2134Y32092D01*
X1948Y31545D01*
X1836Y30979D01*
X1798Y30403D01*
X1836Y29827D01*
X1948Y29261D01*
X2134Y28714D01*
X2389Y28196D01*
X2710Y27716D01*
X3091Y27282D01*
X3525Y26901D01*
X4005Y26580D01*
X4523Y26325D01*
X5070Y26139D01*
X5636Y26027D01*
X6212Y25989D01*
X6788Y26027D01*
X7354Y26139D01*
X7901Y26325D01*
X8419Y26580D01*
X8899Y26901D01*
X9333Y27282D01*
X9714Y27716D01*
X10035Y28196D01*
X10290Y28714D01*
X10476Y29261D01*
X10588Y29827D01*
X10626Y30403D01*
X10588Y30979D01*
X10476Y31545D01*
X10290Y32092D01*
X10035Y32610D01*
X9714Y33090D01*
X9333Y33524D01*
X8899Y33905D01*
X8419Y34226D01*
X7901Y34481D01*
X7354Y34667D01*
X6788Y34779D01*
X6212Y34817D01*
D02*
G37*
G36*
X4900Y23135D02*
X4612Y23097D01*
X4343Y22986D01*
X4112Y22809D01*
X3935Y22578D01*
X3824Y22309D01*
X3786Y22021D01*
X3824Y21733D01*
X3935Y21464D01*
X4112Y21233D01*
X4343Y21056D01*
X4612Y20945D01*
X4900Y20907D01*
X5188Y20945D01*
X5457Y21056D01*
X5688Y21233D01*
X5865Y21464D01*
X5976Y21733D01*
X6014Y22021D01*
X5976Y22309D01*
X5865Y22578D01*
X5688Y22809D01*
X5457Y22986D01*
X5188Y23097D01*
X4900Y23135D01*
D02*
G37*
G36*
X12150Y27858D02*
X11050D01*
X10931Y27834D01*
X10830Y27767D01*
X10763Y27666D01*
X10739Y27547D01*
Y26047D01*
X10763Y25928D01*
X10830Y25827D01*
X10931Y25760D01*
X10978Y25750D01*
Y23653D01*
X10931Y23643D01*
X10830Y23576D01*
X10763Y23475D01*
X10739Y23356D01*
Y23253D01*
X9884D01*
X9304Y23833D01*
X9103Y23967D01*
X8865Y24015D01*
X8356D01*
X8228Y24181D01*
X7997Y24358D01*
X7728Y24469D01*
X7440Y24507D01*
X7152Y24469D01*
X6883Y24358D01*
X6652Y24181D01*
X6475Y23950D01*
X6364Y23681D01*
X6326Y23393D01*
X6364Y23105D01*
X6475Y22836D01*
X6652Y22605D01*
X6883Y22428D01*
X7152Y22317D01*
X7440Y22279D01*
X7728Y22317D01*
X7997Y22428D01*
X8228Y22605D01*
X8356Y22771D01*
X8608D01*
X9188Y22192D01*
X9389Y22057D01*
X9627Y22009D01*
X10739D01*
Y21856D01*
X10763Y21737D01*
X10830Y21636D01*
X10931Y21569D01*
X11050Y21545D01*
X12150D01*
X12269Y21569D01*
X12370Y21636D01*
X12437Y21737D01*
X12461Y21856D01*
Y23356D01*
X12437Y23475D01*
X12370Y23576D01*
X12269Y23643D01*
X12222Y23653D01*
Y25750D01*
X12269Y25760D01*
X12370Y25827D01*
X12437Y25928D01*
X12461Y26047D01*
Y27547D01*
X12437Y27666D01*
X12370Y27767D01*
X12269Y27834D01*
X12150Y27858D01*
D02*
G37*
G36*
X7440Y19020D02*
X7152Y18982D01*
X6883Y18871D01*
X6652Y18694D01*
X6475Y18463D01*
X6364Y18194D01*
X6326Y17906D01*
X6364Y17618D01*
X6475Y17349D01*
X6535Y17270D01*
X6479Y17157D01*
X5816D01*
X5688Y17323D01*
X5457Y17500D01*
X5188Y17611D01*
X4900Y17649D01*
X4612Y17611D01*
X4343Y17500D01*
X4112Y17323D01*
X3935Y17092D01*
X3824Y16823D01*
X3786Y16535D01*
X3824Y16247D01*
X3935Y15978D01*
X3978Y15922D01*
Y14405D01*
X3935Y14349D01*
X3824Y14080D01*
X3786Y13792D01*
X3824Y13504D01*
X3935Y13235D01*
X4112Y13004D01*
X4343Y12827D01*
X4612Y12716D01*
X4900Y12678D01*
X5188Y12716D01*
X5457Y12827D01*
X5688Y13004D01*
X5865Y13235D01*
X5976Y13504D01*
X6014Y13792D01*
X5976Y14080D01*
X5865Y14349D01*
X5822Y14405D01*
Y15913D01*
X6480D01*
X6536Y15800D01*
X6475Y15720D01*
X6364Y15451D01*
X6326Y15163D01*
X6364Y14875D01*
X6475Y14606D01*
X6652Y14375D01*
X6883Y14198D01*
X7152Y14087D01*
X7440Y14049D01*
X7728Y14087D01*
X7997Y14198D01*
X8228Y14375D01*
X8405Y14606D01*
X8516Y14875D01*
X8554Y15163D01*
X8517Y15443D01*
X8526Y15453D01*
X8647Y15493D01*
X8807Y15334D01*
X9008Y15199D01*
X9246Y15151D01*
X11755D01*
Y14998D01*
X11779Y14879D01*
X11846Y14778D01*
X11947Y14711D01*
X12066Y14687D01*
X13166D01*
X13285Y14711D01*
X13386Y14778D01*
X13453Y14879D01*
X13477Y14998D01*
Y16498D01*
X13453Y16617D01*
X13386Y16718D01*
X13285Y16785D01*
X13166Y16809D01*
X12066D01*
X11947Y16785D01*
X11846Y16718D01*
X11779Y16617D01*
X11755Y16498D01*
Y16395D01*
X9503D01*
X8923Y16975D01*
X8722Y17109D01*
X8484Y17157D01*
X8401D01*
X8345Y17270D01*
X8405Y17349D01*
X8516Y17618D01*
X8554Y17906D01*
X8516Y18194D01*
X8405Y18463D01*
X8228Y18694D01*
X7997Y18871D01*
X7728Y18982D01*
X7440Y19020D01*
D02*
G37*
G36*
X18784Y31638D02*
X17284D01*
X17165Y31614D01*
X17064Y31547D01*
X16997Y31446D01*
X16973Y31327D01*
Y30227D01*
X16997Y30108D01*
X17064Y30007D01*
X17165Y29940D01*
X17284Y29916D01*
X17412D01*
Y27852D01*
X17322Y27834D01*
X17221Y27767D01*
X17154Y27666D01*
X17130Y27547D01*
Y26047D01*
X17154Y25928D01*
X17221Y25827D01*
X17322Y25760D01*
X17441Y25736D01*
X18541D01*
X18660Y25760D01*
X18761Y25827D01*
X18828Y25928D01*
X18852Y26047D01*
Y27547D01*
X18828Y27666D01*
X18761Y27767D01*
X18660Y27834D01*
X18656Y27835D01*
Y29916D01*
X18784D01*
X18903Y29940D01*
X19004Y30007D01*
X19071Y30108D01*
X19095Y30227D01*
Y31327D01*
X19071Y31446D01*
X19004Y31547D01*
X18903Y31614D01*
X18784Y31638D01*
D02*
G37*
G36*
X62611Y33258D02*
X62319Y33220D01*
X62047Y33107D01*
X61814Y32928D01*
X61635Y32695D01*
X61522Y32423D01*
X61484Y32131D01*
X61522Y31839D01*
X61635Y31567D01*
X61814Y31334D01*
X62047Y31155D01*
X62319Y31042D01*
X62611Y31004D01*
X62903Y31042D01*
X63175Y31155D01*
X63408Y31334D01*
X63587Y31567D01*
X63700Y31839D01*
X63738Y32131D01*
X63700Y32423D01*
X63587Y32695D01*
X63408Y32928D01*
X63175Y33107D01*
X62903Y33220D01*
X62611Y33258D01*
D02*
G37*
G36*
Y23098D02*
X62319Y23060D01*
X62047Y22947D01*
X61814Y22768D01*
X61635Y22535D01*
X61522Y22263D01*
X61484Y21971D01*
X61522Y21679D01*
X61635Y21407D01*
X61814Y21174D01*
X62047Y20995D01*
X62319Y20882D01*
X62611Y20844D01*
X62903Y20882D01*
X63175Y20995D01*
X63408Y21174D01*
X63587Y21407D01*
X63700Y21679D01*
X63738Y21971D01*
X63700Y22263D01*
X63587Y22535D01*
X63408Y22768D01*
X63175Y22947D01*
X62903Y23060D01*
X62611Y23098D01*
D02*
G37*
G36*
Y25638D02*
X62319Y25600D01*
X62047Y25487D01*
X61814Y25308D01*
X61635Y25075D01*
X61522Y24803D01*
X61484Y24511D01*
X61522Y24219D01*
X61635Y23947D01*
X61814Y23714D01*
X62047Y23535D01*
X62319Y23422D01*
X62611Y23384D01*
X62903Y23422D01*
X63175Y23535D01*
X63408Y23714D01*
X63587Y23947D01*
X63700Y24219D01*
X63738Y24511D01*
X63700Y24803D01*
X63587Y25075D01*
X63408Y25308D01*
X63175Y25487D01*
X62903Y25600D01*
X62611Y25638D01*
D02*
G37*
G36*
Y28178D02*
X62319Y28140D01*
X62047Y28027D01*
X61814Y27848D01*
X61635Y27615D01*
X61522Y27343D01*
X61484Y27051D01*
X61522Y26759D01*
X61635Y26487D01*
X61814Y26254D01*
X62047Y26075D01*
X62319Y25962D01*
X62611Y25924D01*
X62903Y25962D01*
X63175Y26075D01*
X63408Y26254D01*
X63587Y26487D01*
X63700Y26759D01*
X63738Y27051D01*
X63700Y27343D01*
X63587Y27615D01*
X63408Y27848D01*
X63175Y28027D01*
X62903Y28140D01*
X62611Y28178D01*
D02*
G37*
%LPD*%
D10*
X43518Y27178D02*
D03*
X41318D02*
D03*
X12616Y15748D02*
D03*
X14816D02*
D03*
X29548Y17272D02*
D03*
X27348D02*
D03*
X41486Y19685D02*
D03*
X39286D02*
D03*
X34501D02*
D03*
X32301D02*
D03*
X37254Y27178D02*
D03*
X39454D02*
D03*
X37254Y29464D02*
D03*
X39454D02*
D03*
X51901Y21579D02*
D03*
X54101D02*
D03*
X52408Y29591D02*
D03*
X50208D02*
D03*
X50251Y31623D02*
D03*
X52451D02*
D03*
X26078Y24511D02*
D03*
X28278D02*
D03*
Y30861D02*
D03*
X26078D02*
D03*
Y32766D02*
D03*
X28278D02*
D03*
X14816Y7747D02*
D03*
X12616D02*
D03*
X14816Y11557D02*
D03*
X12616D02*
D03*
X29167Y5969D02*
D03*
X26967D02*
D03*
X16426Y3683D02*
D03*
X18626D02*
D03*
X25103D02*
D03*
X22903D02*
D03*
X14816Y9652D02*
D03*
X12616D02*
D03*
X22563Y16002D02*
D03*
X20363D02*
D03*
X26967Y13843D02*
D03*
X29167D02*
D03*
X11600Y26797D02*
D03*
X13800D02*
D03*
X17991D02*
D03*
X15791D02*
D03*
X13800Y22606D02*
D03*
X11600D02*
D03*
X29167Y9652D02*
D03*
X26967D02*
D03*
X29548Y19685D02*
D03*
X27348D02*
D03*
X20490Y24511D02*
D03*
X22690D02*
D03*
X43477Y19685D02*
D03*
X45677D02*
D03*
Y23876D02*
D03*
X43477D02*
D03*
D11*
X47625Y8933D02*
D03*
Y11133D02*
D03*
X15494Y20819D02*
D03*
Y18619D02*
D03*
X32258Y17399D02*
D03*
Y15199D02*
D03*
X41529Y15156D02*
D03*
Y17356D02*
D03*
X36830Y16086D02*
D03*
Y13886D02*
D03*
Y19642D02*
D03*
Y17442D02*
D03*
X45720Y16086D02*
D03*
Y13886D02*
D03*
X33147Y9228D02*
D03*
Y7028D02*
D03*
X30480Y24554D02*
D03*
Y26754D02*
D03*
X24130Y26586D02*
D03*
Y28786D02*
D03*
X18034Y32977D02*
D03*
Y30777D02*
D03*
X12573Y5545D02*
D03*
Y3345D02*
D03*
X29210Y4021D02*
D03*
Y1821D02*
D03*
X56642Y6434D02*
D03*
Y4234D02*
D03*
X44323Y6647D02*
D03*
Y8847D02*
D03*
X41910D02*
D03*
Y6647D02*
D03*
D12*
X24328Y20950D02*
D03*
X18613Y19680D02*
D03*
Y18410D02*
D03*
X24328D02*
D03*
Y22220D02*
D03*
X18613Y20950D02*
D03*
X24328Y19680D02*
D03*
X54173Y26411D02*
D03*
X48458Y25141D02*
D03*
Y23871D02*
D03*
X54173D02*
D03*
Y27681D02*
D03*
X48458Y26411D02*
D03*
X54173Y25141D02*
D03*
D13*
X18613Y22220D02*
D03*
X48458Y27681D02*
D03*
D14*
X38603Y5136D02*
D03*
X37333Y10851D02*
D03*
X36063D02*
D03*
Y5136D02*
D03*
X39873D02*
D03*
X38603Y10851D02*
D03*
X37333Y5136D02*
D03*
D15*
X39873Y10851D02*
D03*
D16*
X28128Y26289D02*
D03*
X26228D02*
D03*
X27178D02*
D03*
X28128Y29089D02*
D03*
X26228D02*
D03*
D17*
X16453Y5903D02*
D03*
Y7808D02*
D03*
X25203Y7813D02*
D03*
Y5908D02*
D03*
Y11623D02*
D03*
Y9718D02*
D03*
X16453Y9713D02*
D03*
Y11618D02*
D03*
D18*
X18675Y6856D02*
D03*
X22981Y6860D02*
D03*
Y10670D02*
D03*
X18675Y10666D02*
D03*
D19*
X36506Y23511D02*
D03*
Y24011D02*
D03*
X40456Y24511D02*
D03*
Y24011D02*
D03*
X36506Y25011D02*
D03*
Y24511D02*
D03*
Y25511D02*
D03*
X40456Y25011D02*
D03*
Y25511D02*
D03*
D20*
Y23511D02*
D03*
D21*
X53705Y8019D02*
D03*
X53205D02*
D03*
X52705D02*
D03*
X52205D02*
D03*
X51705D02*
D03*
X53705Y3919D02*
D03*
X53205D02*
D03*
X52705D02*
D03*
X52205D02*
D03*
X51705D02*
D03*
D22*
X36966Y7992D02*
X51705D01*
X50560Y25141D02*
X53086Y22615D01*
X48458Y25141D02*
X50560D01*
X53086Y20863D02*
Y22615D01*
Y20863D02*
X53695Y20254D01*
X52717Y20320D02*
X55257Y17780D01*
X48260Y20320D02*
X52717D01*
X55257Y17780D02*
X60833D01*
X55118Y17272D02*
X60833D01*
X52578Y19812D02*
X55118Y17272D01*
X48121Y19812D02*
X52578D01*
X52705Y15748D02*
Y17907D01*
X51705Y8019D02*
Y16891D01*
X52075Y24339D02*
Y26411D01*
Y24339D02*
X54101Y22313D01*
Y21579D02*
Y22313D01*
X53695Y20254D02*
X61788D01*
X46039Y21895D02*
X48121Y19812D01*
X49488Y7535D02*
X50419Y6604D01*
X36661Y7535D02*
X49488D01*
X31877Y12319D02*
X36661Y7535D01*
X29548Y15410D02*
X36966Y7992D01*
X50241Y6147D02*
X51705Y4683D01*
X50230Y6147D02*
X50241D01*
X49729Y6647D02*
X50230Y6147D01*
X44323Y6647D02*
X49729D01*
X52205Y4762D02*
X52980Y5537D01*
X52205Y3919D02*
Y4762D01*
X52730Y5994D02*
X53977D01*
X51705Y4969D02*
X52730Y5994D01*
X54167Y5537D02*
X55042Y6412D01*
X52980Y5537D02*
X54167D01*
X55499Y6223D02*
Y8128D01*
X54356Y5080D02*
X55499Y6223D01*
X53467Y5080D02*
X54356D01*
X53205Y4818D02*
X53467Y5080D01*
X53205Y3919D02*
Y4818D01*
X55042Y6412D02*
Y9333D01*
X54356Y6373D02*
Y10287D01*
X52705Y6985D02*
X52959Y6731D01*
X53467D01*
X53705Y6969D01*
X61788Y20254D02*
X62611Y19431D01*
X46228Y22352D02*
X48260Y20320D01*
X53705Y6969D02*
Y8019D01*
X52705Y6985D02*
Y8019D01*
Y11303D01*
X59309Y1651D02*
X62611D01*
X58090Y432D02*
X59309Y1651D01*
X11506Y432D02*
X58090D01*
X60960Y4191D02*
X62611D01*
X57658Y889D02*
X60960Y4191D01*
X11696Y889D02*
X57658D01*
X57416Y1397D02*
X60782Y4764D01*
X31877Y1397D02*
X57416D01*
X61341Y6731D02*
X62611D01*
X60782Y6172D02*
X61341Y6731D01*
X60782Y4764D02*
Y6172D01*
X60325Y6985D02*
X62611Y9271D01*
X60325Y4953D02*
Y6985D01*
X57277Y1905D02*
X60325Y4953D01*
Y8001D02*
Y9525D01*
X57658Y5334D02*
X60325Y8001D01*
X55626Y5334D02*
X57658D01*
X56134Y10426D02*
Y10541D01*
X55042Y9333D02*
X56134Y10426D01*
X57912Y10541D02*
X63373D01*
X55499Y8128D02*
X57912Y10541D01*
X53977Y5994D02*
X54356Y6373D01*
X54229Y11811D02*
X62611D01*
X53205Y10787D02*
X54229Y11811D01*
X53205Y8019D02*
Y10787D01*
X52205Y15248D02*
X52705Y15748D01*
X52205Y8019D02*
Y15248D01*
X60325Y14605D02*
X62611Y16891D01*
X60325Y12827D02*
Y14605D01*
X54211Y3919D02*
X55626Y5334D01*
X53705Y3919D02*
X54211D01*
X56642Y3175D02*
Y4234D01*
X56007Y2540D02*
X56642Y3175D01*
X52959Y2540D02*
X56007D01*
X52705Y2794D02*
X52959Y2540D01*
X51705Y4683D02*
Y4969D01*
Y3919D02*
Y4683D01*
X52705Y2794D02*
Y3919D01*
X52426Y2515D02*
X52705Y2794D01*
X50165Y2515D02*
X52426D01*
X63373Y10541D02*
X63754Y10922D01*
Y13335D01*
X62738Y14351D02*
X63754Y13335D01*
X62611Y14351D02*
X62738D01*
X52205Y6739D02*
Y8019D01*
X52070Y6604D02*
X52205Y6739D01*
X50419Y6604D02*
X52070D01*
X29548Y15410D02*
Y17272D01*
X30988Y12319D02*
X31877D01*
X32385Y1905D02*
X57277D01*
X32004Y2286D02*
X32385Y1905D01*
X32004Y2286D02*
Y5715D01*
X30988Y2286D02*
X31877Y1397D01*
X30988Y2286D02*
Y4953D01*
X29972Y5969D02*
X30988Y4953D01*
X29167Y5969D02*
X29972D01*
X10668Y1270D02*
X11506Y432D01*
X11125Y1459D02*
X11696Y889D01*
X11125Y1459D02*
Y7315D01*
X11557Y7747D01*
X12616D01*
X10668Y1270D02*
Y9398D01*
X10922Y9652D01*
X12616D01*
X63119Y18161D02*
X63881Y17399D01*
X61214Y18161D02*
X63119D01*
X60833Y17780D02*
X61214Y18161D01*
X62611Y14351D02*
X63881Y15621D01*
Y17399D01*
X61214Y16891D02*
X62611D01*
X60833Y17272D02*
X61214Y16891D01*
X40070Y21895D02*
X46039D01*
X39368Y22597D02*
X40070Y21895D01*
X39084Y23511D02*
X40456D01*
X37584Y25011D02*
X39084Y23511D01*
X38705Y22597D02*
X39368D01*
X37291Y24011D02*
X38705Y22597D01*
X36506Y24011D02*
X37291D01*
X40259Y22352D02*
X46228D01*
X39557Y23054D02*
X40259Y22352D01*
X38895Y23054D02*
X39557D01*
X37437Y24511D02*
X38895Y23054D01*
X36506Y24511D02*
X37437D01*
X40456Y24011D02*
X42156D01*
X42418Y23749D01*
X43350D01*
X43477Y23876D01*
X40456Y24511D02*
X41656D01*
X42672Y25527D01*
X45847D01*
X46731Y26411D01*
X48458D01*
X36506Y25011D02*
X37584D01*
X38227Y25654D01*
Y26924D01*
X37973Y27178D02*
X38227Y26924D01*
X37254Y27178D02*
X37973D01*
X40456Y25511D02*
X41640D01*
X42418Y26289D01*
Y27051D01*
X42545Y27178D01*
X43518D01*
D23*
X33147Y6985D02*
X33782D01*
X30734D02*
X33147D01*
X38354Y6731D02*
X38603Y6482D01*
X34671Y6731D02*
X38354D01*
X57023Y25146D02*
Y27940D01*
Y21336D02*
Y25146D01*
X57018Y25141D02*
X57023Y25146D01*
X54173Y25141D02*
X57018D01*
X55372Y29591D02*
X57023Y27940D01*
X52408Y29591D02*
X55372D01*
X51308Y33401D02*
X58674D01*
X39751D02*
X51308D01*
X52075Y26411D02*
X54173D01*
X51308Y27178D02*
X52075Y26411D01*
X51308Y27178D02*
Y33401D01*
X18675Y6856D02*
Y10666D01*
X4900Y16535D02*
X8484D01*
X9246Y15773D01*
X12591D01*
X22981Y6860D02*
Y10670D01*
X11575Y22631D02*
X11600Y22656D01*
X9627Y22631D02*
X11575D01*
X8865Y23393D02*
X9627Y22631D01*
X7440Y23393D02*
X8865D01*
X12591Y15773D02*
X12616Y15748D01*
X33147Y6985D02*
Y7028D01*
Y4318D02*
Y6985D01*
X34950Y2515D02*
X50165D01*
X33147Y4318D02*
X34950Y2515D01*
X58674Y33401D02*
X59944Y34671D01*
X37254Y29464D02*
Y30904D01*
X39751Y33401D01*
X59944Y34671D02*
X62611D01*
X38143Y16086D02*
X38313Y16256D01*
X42672D01*
X43477Y15451D01*
Y13886D02*
Y15451D01*
Y13886D02*
X45720D01*
X42545Y12954D02*
X43477Y13886D01*
X38100Y12954D02*
X42545D01*
X37333Y12187D02*
X38100Y12954D01*
X37333Y10851D02*
Y12187D01*
X36830Y16086D02*
X38143D01*
X33401Y18796D02*
Y22098D01*
X30480Y20955D02*
X34036Y24511D01*
X33401Y18796D02*
X34755Y17442D01*
X36830D01*
X26797Y22479D02*
X30226D01*
X26078Y23198D02*
X26797Y22479D01*
X26078Y23198D02*
Y24511D01*
X34374Y7028D02*
X34671Y6731D01*
X33782Y7028D02*
X34374D01*
X22563Y16002D02*
X25527D01*
X47879Y13716D02*
X49276D01*
X47625Y13462D02*
X47879Y13716D01*
X47625Y11133D02*
Y13462D01*
X44323Y8847D02*
X47625D01*
X31115Y9652D02*
X31369Y9398D01*
X29167Y9652D02*
X31115D01*
X30099Y7620D02*
X30734Y6985D01*
X37333Y4196D02*
Y5136D01*
Y4196D02*
X37968Y3561D01*
X40899D01*
X41910Y4572D01*
X12616Y9652D02*
Y11557D01*
X14816D02*
X16392D01*
X14689D02*
X14816D01*
X48895Y21336D02*
X49276D01*
X46355Y23876D02*
X48895Y21336D01*
X45677Y23876D02*
X46355D01*
X15494Y20912D02*
Y22352D01*
X15532Y20950D02*
X18613D01*
X15494Y20912D02*
X15532Y20950D01*
X11600Y22656D02*
Y26797D01*
X17991D02*
X18034Y26840D01*
Y30777D01*
X20363Y16002D02*
Y20277D01*
X19690Y20950D02*
X20363Y20277D01*
X18613Y20950D02*
X19690D01*
X13800Y20363D02*
Y22606D01*
Y20363D02*
X14483Y19680D01*
X18613D01*
X22563Y16002D02*
Y19261D01*
X22982Y19680D01*
X24328D01*
X22563Y14308D02*
Y16002D01*
X18712Y14308D02*
X22563D01*
X15494Y17526D02*
X18712Y14308D01*
X15494Y17526D02*
Y18619D01*
X24328Y19680D02*
X27343D01*
X27348Y19685D01*
X29548Y17272D02*
Y19685D01*
Y17272D02*
X32131D01*
X32258Y17399D01*
Y19642D01*
X32301Y19685D01*
X34501D02*
X39286D01*
X41486D02*
X43477D01*
X36830Y16086D02*
Y17442D01*
X32850Y13886D02*
X36830D01*
X32258Y14478D02*
X32850Y13886D01*
X32258Y14478D02*
Y15199D01*
X36830Y13886D02*
X40937D01*
X41529Y14478D01*
Y15156D01*
Y17356D02*
Y19642D01*
X41486Y19685D02*
X41529Y19642D01*
X45677Y16129D02*
Y19685D01*
Y16129D02*
X45720Y16086D01*
X49106D01*
X49276Y16256D01*
Y18796D01*
X28278Y30861D02*
Y32766D01*
X28128Y29089D02*
Y30711D01*
X28278Y30861D01*
X26228Y26289D02*
Y26990D01*
X27051Y27813D01*
X27813D01*
X28128Y28128D01*
Y29089D01*
X26228Y24661D02*
Y26289D01*
X26078Y24511D02*
X26228Y24661D01*
X28278Y24511D02*
X30437D01*
X30480Y24554D01*
X28128Y24661D02*
Y26289D01*
Y24661D02*
X28278Y24511D01*
X18034Y32977D02*
X23411D01*
X24130Y32258D01*
Y28786D02*
Y32258D01*
Y28786D02*
X25103D01*
X25406Y29089D01*
X26228D01*
X22944Y28786D02*
X24130D01*
X22690Y28532D02*
X22944Y28786D01*
X22690Y24511D02*
Y28532D01*
Y21506D02*
Y24511D01*
Y21506D02*
X23246Y20950D01*
X24328D01*
X48458Y26411D02*
X49525D01*
X50208Y27094D01*
Y29591D01*
X50251Y29634D02*
Y31623D01*
X50208Y29591D02*
X50251Y29634D01*
X52451D02*
Y31623D01*
X52408Y29591D02*
X52451Y29634D01*
X16392Y11557D02*
X16453Y11618D01*
X14816Y7747D02*
X16392D01*
X16453Y7808D01*
X12616Y5588D02*
Y7747D01*
X12573Y5545D02*
X12616Y5588D01*
X16453Y3710D02*
Y5903D01*
X16426Y3683D02*
X16453Y3710D01*
X25203Y9718D02*
X26901D01*
X26967Y9652D01*
X29167D02*
Y13843D01*
X25203Y5908D02*
X26906D01*
X26967Y5969D01*
X29167Y4064D02*
Y5969D01*
Y4064D02*
X29210Y4021D01*
X24257Y4529D02*
X25103Y3683D01*
X24257Y4529D02*
Y7366D01*
X24704Y7813D01*
X25203D01*
Y11623D02*
Y13138D01*
X25908Y13843D01*
X26967D01*
X16453Y9713D02*
X17399Y10659D01*
X37254Y27178D02*
Y29464D01*
X24328Y20950D02*
X28199D01*
X28448Y20701D01*
X26967Y13843D02*
Y14775D01*
X28448Y16256D01*
Y20701D01*
X14816Y9652D02*
X16392D01*
X16453Y9713D01*
X17399Y10659D02*
Y11176D01*
X17846Y11623D01*
X25203D01*
X27620D01*
X28067Y11176D01*
Y8128D02*
Y11176D01*
Y8128D02*
X28575Y7620D01*
X30099D01*
X38603Y5136D02*
Y6482D01*
X41910Y4572D02*
Y6647D01*
X44323D01*
X41910Y8847D02*
X44323D01*
X39159D02*
X41910D01*
X38603Y9403D02*
X39159Y8847D01*
X38603Y9403D02*
Y10851D01*
X28448Y20701D02*
X28702Y20955D01*
X30480D01*
X34036Y24511D02*
Y26416D01*
X34798Y27178D01*
X37254D01*
D24*
X4900Y13792D02*
Y16535D01*
D25*
X49276Y21336D02*
D03*
Y18796D02*
D03*
Y16256D02*
D03*
X57023Y21336D02*
D03*
Y18796D02*
D03*
Y16256D02*
D03*
D26*
X49276Y13716D02*
D03*
X57023D02*
D03*
D27*
X62611Y1651D02*
D03*
Y4191D02*
D03*
Y6731D02*
D03*
Y9271D02*
D03*
Y32131D02*
D03*
Y11811D02*
D03*
Y14351D02*
D03*
Y16891D02*
D03*
Y19431D02*
D03*
Y21971D02*
D03*
Y24511D02*
D03*
Y27051D02*
D03*
Y29591D02*
D03*
D28*
Y34671D02*
D03*
D29*
X4900Y22021D02*
D03*
X4890Y19278D02*
D03*
X4900Y16535D02*
D03*
Y13792D02*
D03*
X7440Y23393D02*
D03*
Y20650D02*
D03*
Y17906D02*
D03*
Y15163D02*
D03*
D30*
Y12420D02*
D03*
D31*
X52705Y17907D02*
D03*
X51705Y16891D02*
D03*
X57912Y8128D02*
D03*
X35687Y11938D02*
D03*
X50673Y22733D02*
D03*
X46736Y31623D02*
D03*
X40767Y31496D02*
D03*
X35433Y22225D02*
D03*
X30480Y10922D02*
D03*
X18542Y16764D02*
D03*
X24384Y24638D02*
D03*
X56134Y10541D02*
D03*
X54356Y10287D02*
D03*
X60325Y12827D02*
D03*
Y9525D02*
D03*
X33401Y22098D02*
D03*
X30226Y22479D02*
D03*
X25527Y16002D02*
D03*
X30988Y12319D02*
D03*
X32004Y5715D02*
D03*
X31369Y9398D02*
D03*
X15494Y22352D02*
D03*
X22987Y8763D02*
D03*
X18669D02*
D03*
%TF.MD5,24c7942f9d5b04746ecd922f261ce77e*%
M02*
