G04 Layer_Physical_Order=2*
G04 Layer_Color=16711680*
%FSLAX43Y43*%
%MOMM*%
%TF.FileFunction,Copper,L2,Bot,Signal*%
%TF.Part,Single*%
G01*
G75*
%TA.AperFunction,Conductor*%
%ADD22C,0.305*%
%ADD23C,0.610*%
%TA.AperFunction,ComponentPad*%
%ADD25O,1.500X1.250*%
%ADD26R,1.500X1.250*%
%ADD27C,1.626*%
%ADD28R,1.626X1.626*%
%ADD29C,1.600*%
%ADD30R,1.600X1.600*%
%TA.AperFunction,ViaPad*%
%ADD31C,1.000*%
G36*
X64135Y127D02*
X127D01*
Y35814D01*
X61515D01*
X61549Y35756D01*
X61567Y35687D01*
X61511Y35603D01*
X61487Y35484D01*
Y33858D01*
X61511Y33739D01*
X61578Y33638D01*
X61679Y33571D01*
X61798Y33547D01*
X63424D01*
X63543Y33571D01*
X63644Y33638D01*
X63711Y33739D01*
X63735Y33858D01*
Y35484D01*
X63711Y35603D01*
X63655Y35687D01*
X63673Y35756D01*
X63707Y35814D01*
X64135D01*
Y127D01*
D02*
G37*
%LPC*%
G36*
X62611Y12938D02*
X62319Y12900D01*
X62047Y12787D01*
X61814Y12608D01*
X61635Y12375D01*
X61522Y12103D01*
X61484Y11811D01*
X61522Y11519D01*
X61635Y11247D01*
X61814Y11014D01*
X62047Y10835D01*
X62319Y10722D01*
X62611Y10684D01*
X62903Y10722D01*
X63175Y10835D01*
X63408Y11014D01*
X63587Y11247D01*
X63700Y11519D01*
X63738Y11811D01*
X63700Y12103D01*
X63587Y12375D01*
X63408Y12608D01*
X63175Y12787D01*
X62903Y12900D01*
X62611Y12938D01*
D02*
G37*
G36*
X7440Y19020D02*
X7152Y18982D01*
X6883Y18871D01*
X6652Y18694D01*
X6475Y18463D01*
X6364Y18194D01*
X6326Y17906D01*
X6364Y17618D01*
X6475Y17349D01*
X6652Y17118D01*
X6883Y16941D01*
X7152Y16830D01*
X7440Y16792D01*
X7728Y16830D01*
X7792Y16856D01*
X15054Y9594D01*
X15177Y9512D01*
X15139Y9385D01*
X14097D01*
X8527Y14955D01*
X8554Y15163D01*
X8516Y15451D01*
X8405Y15720D01*
X8228Y15951D01*
X7997Y16128D01*
X7728Y16239D01*
X7440Y16277D01*
X7152Y16239D01*
X6883Y16128D01*
X6652Y15951D01*
X6475Y15720D01*
X6364Y15451D01*
X6326Y15163D01*
X6364Y14875D01*
X6475Y14606D01*
X6652Y14375D01*
X6883Y14198D01*
X7152Y14087D01*
X7440Y14049D01*
X7648Y14076D01*
X8076Y13648D01*
X8027Y13531D01*
X6640D01*
X6521Y13507D01*
X6420Y13440D01*
X6353Y13339D01*
X6329Y13220D01*
Y11620D01*
X6353Y11501D01*
X6420Y11400D01*
X6521Y11333D01*
X6640Y11309D01*
X8240D01*
X8359Y11333D01*
X8460Y11400D01*
X8527Y11501D01*
X8551Y11620D01*
Y13007D01*
X8668Y13056D01*
X13401Y8323D01*
X13602Y8189D01*
X13840Y8141D01*
X18157D01*
X18263Y8060D01*
X18459Y7979D01*
X18669Y7951D01*
X18879Y7979D01*
X19075Y8060D01*
X19243Y8189D01*
X19372Y8357D01*
X19453Y8553D01*
X19481Y8763D01*
X19453Y8973D01*
X19372Y9169D01*
X19283Y9284D01*
X19346Y9411D01*
X21460D01*
X22185Y8686D01*
X22203Y8553D01*
X22284Y8357D01*
X22413Y8189D01*
X22581Y8060D01*
X22777Y7979D01*
X22987Y7951D01*
X23197Y7979D01*
X23393Y8060D01*
X23561Y8189D01*
X23690Y8357D01*
X23771Y8553D01*
X23799Y8763D01*
X23771Y8973D01*
X23690Y9169D01*
X23561Y9337D01*
X23393Y9466D01*
X23197Y9547D01*
X23064Y9565D01*
X22156Y10472D01*
X21955Y10607D01*
X21717Y10655D01*
X15751D01*
X8548Y17858D01*
X8554Y17906D01*
X8516Y18194D01*
X8405Y18463D01*
X8228Y18694D01*
X7997Y18871D01*
X7728Y18982D01*
X7440Y19020D01*
D02*
G37*
G36*
X60325Y13639D02*
X60115Y13611D01*
X59919Y13530D01*
X59751Y13401D01*
X59622Y13233D01*
X59541Y13037D01*
X59513Y12827D01*
X59541Y12617D01*
X59622Y12421D01*
X59751Y12253D01*
X59859Y12170D01*
Y10182D01*
X59751Y10099D01*
X59622Y9931D01*
X59541Y9735D01*
X59513Y9525D01*
X59541Y9315D01*
X59622Y9119D01*
X59751Y8951D01*
X59919Y8822D01*
X60115Y8741D01*
X60325Y8713D01*
X60535Y8741D01*
X60731Y8822D01*
X60899Y8951D01*
X61028Y9119D01*
X61109Y9315D01*
X61137Y9525D01*
X61109Y9735D01*
X61028Y9931D01*
X60899Y10099D01*
X60791Y10182D01*
Y12170D01*
X60899Y12253D01*
X61028Y12421D01*
X61109Y12617D01*
X61137Y12827D01*
X61109Y13037D01*
X61028Y13233D01*
X60899Y13401D01*
X60731Y13530D01*
X60535Y13611D01*
X60325Y13639D01*
D02*
G37*
G36*
X50026Y14652D02*
X48526D01*
X48407Y14628D01*
X48306Y14561D01*
X48239Y14460D01*
X48215Y14341D01*
Y13091D01*
X48239Y12972D01*
X48306Y12871D01*
X48407Y12804D01*
X48526Y12780D01*
X50026D01*
X50145Y12804D01*
X50246Y12871D01*
X50313Y12972D01*
X50337Y13091D01*
Y14341D01*
X50313Y14460D01*
X50246Y14561D01*
X50145Y14628D01*
X50026Y14652D01*
D02*
G37*
G36*
X4900Y14906D02*
X4612Y14868D01*
X4343Y14757D01*
X4112Y14580D01*
X3935Y14349D01*
X3824Y14080D01*
X3786Y13792D01*
X3824Y13504D01*
X3935Y13235D01*
X4112Y13004D01*
X4343Y12827D01*
X4612Y12716D01*
X4900Y12678D01*
X5188Y12716D01*
X5457Y12827D01*
X5688Y13004D01*
X5865Y13235D01*
X5976Y13504D01*
X6014Y13792D01*
X5976Y14080D01*
X5865Y14349D01*
X5688Y14580D01*
X5457Y14757D01*
X5188Y14868D01*
X4900Y14906D01*
D02*
G37*
G36*
X25527Y16814D02*
X25317Y16786D01*
X25121Y16705D01*
X24953Y16576D01*
X24824Y16408D01*
X24743Y16212D01*
X24715Y16002D01*
X24743Y15792D01*
X24824Y15596D01*
X24953Y15428D01*
X25121Y15299D01*
X25317Y15218D01*
X25527Y15190D01*
X25737Y15218D01*
X25933Y15299D01*
X26039Y15380D01*
X27048D01*
X30186Y12242D01*
X30204Y12109D01*
X30285Y11913D01*
X30414Y11745D01*
X30582Y11616D01*
X30778Y11535D01*
X30988Y11507D01*
X31198Y11535D01*
X31394Y11616D01*
X31562Y11745D01*
X31691Y11913D01*
X31772Y12109D01*
X31800Y12319D01*
X31772Y12529D01*
X31691Y12725D01*
X31562Y12893D01*
X31394Y13022D01*
X31198Y13103D01*
X31065Y13121D01*
X27744Y16441D01*
X27543Y16576D01*
X27305Y16624D01*
X26039D01*
X25933Y16705D01*
X25737Y16786D01*
X25527Y16814D01*
D02*
G37*
G36*
X62611Y5318D02*
X62319Y5280D01*
X62047Y5167D01*
X61814Y4988D01*
X61635Y4755D01*
X61522Y4483D01*
X61484Y4191D01*
X61522Y3899D01*
X61635Y3627D01*
X61814Y3394D01*
X62047Y3215D01*
X62319Y3102D01*
X62611Y3064D01*
X62903Y3102D01*
X63175Y3215D01*
X63408Y3394D01*
X63587Y3627D01*
X63700Y3899D01*
X63738Y4191D01*
X63700Y4483D01*
X63587Y4755D01*
X63408Y4988D01*
X63175Y5167D01*
X62903Y5280D01*
X62611Y5318D01*
D02*
G37*
G36*
X6212Y9824D02*
X5636Y9786D01*
X5070Y9674D01*
X4523Y9488D01*
X4005Y9233D01*
X3525Y8912D01*
X3091Y8531D01*
X2710Y8097D01*
X2389Y7617D01*
X2134Y7099D01*
X1948Y6552D01*
X1836Y5986D01*
X1798Y5410D01*
X1836Y4834D01*
X1948Y4268D01*
X2134Y3721D01*
X2389Y3203D01*
X2710Y2723D01*
X3091Y2289D01*
X3525Y1908D01*
X4005Y1587D01*
X4523Y1332D01*
X5070Y1146D01*
X5636Y1034D01*
X6212Y996D01*
X6788Y1034D01*
X7354Y1146D01*
X7901Y1332D01*
X8419Y1587D01*
X8899Y1908D01*
X9333Y2289D01*
X9714Y2723D01*
X10035Y3203D01*
X10290Y3721D01*
X10476Y4268D01*
X10588Y4834D01*
X10626Y5410D01*
X10588Y5986D01*
X10476Y6552D01*
X10290Y7099D01*
X10035Y7617D01*
X9714Y8097D01*
X9333Y8531D01*
X8899Y8912D01*
X8419Y9233D01*
X7901Y9488D01*
X7354Y9674D01*
X6788Y9786D01*
X6212Y9824D01*
D02*
G37*
G36*
X62611Y2778D02*
X62319Y2740D01*
X62047Y2627D01*
X61814Y2448D01*
X61635Y2215D01*
X61522Y1943D01*
X61484Y1651D01*
X61522Y1359D01*
X61635Y1087D01*
X61814Y854D01*
X62047Y675D01*
X62319Y562D01*
X62611Y524D01*
X62903Y562D01*
X63175Y675D01*
X63408Y854D01*
X63587Y1087D01*
X63700Y1359D01*
X63738Y1651D01*
X63700Y1943D01*
X63587Y2215D01*
X63408Y2448D01*
X63175Y2627D01*
X62903Y2740D01*
X62611Y2778D01*
D02*
G37*
G36*
Y10398D02*
X62319Y10360D01*
X62047Y10247D01*
X61814Y10068D01*
X61635Y9835D01*
X61522Y9563D01*
X61484Y9271D01*
X61522Y8979D01*
X61635Y8707D01*
X61814Y8474D01*
X62047Y8295D01*
X62319Y8182D01*
X62611Y8144D01*
X62903Y8182D01*
X63175Y8295D01*
X63408Y8474D01*
X63587Y8707D01*
X63700Y8979D01*
X63738Y9271D01*
X63700Y9563D01*
X63587Y9835D01*
X63408Y10068D01*
X63175Y10247D01*
X62903Y10360D01*
X62611Y10398D01*
D02*
G37*
G36*
Y7858D02*
X62319Y7820D01*
X62047Y7707D01*
X61814Y7528D01*
X61635Y7295D01*
X61522Y7023D01*
X61484Y6731D01*
X61522Y6439D01*
X61635Y6167D01*
X61814Y5934D01*
X62047Y5755D01*
X62319Y5642D01*
X62611Y5604D01*
X62903Y5642D01*
X63175Y5755D01*
X63408Y5934D01*
X63587Y6167D01*
X63700Y6439D01*
X63738Y6731D01*
X63700Y7023D01*
X63587Y7295D01*
X63408Y7528D01*
X63175Y7707D01*
X62903Y7820D01*
X62611Y7858D01*
D02*
G37*
G36*
X31369Y10210D02*
X31159Y10182D01*
X30963Y10101D01*
X30795Y9972D01*
X30666Y9804D01*
X30585Y9608D01*
X30557Y9398D01*
X30585Y9188D01*
X30666Y8992D01*
X30747Y8886D01*
Y6350D01*
X30795Y6112D01*
X30930Y5911D01*
X31202Y5638D01*
X31220Y5505D01*
X31301Y5309D01*
X31430Y5141D01*
X31598Y5012D01*
X31794Y4931D01*
X32004Y4903D01*
X32214Y4931D01*
X32410Y5012D01*
X32578Y5141D01*
X32707Y5309D01*
X32788Y5505D01*
X32816Y5715D01*
X32788Y5925D01*
X32707Y6121D01*
X32578Y6289D01*
X32410Y6418D01*
X32214Y6499D01*
X32081Y6517D01*
X31991Y6607D01*
Y8886D01*
X32072Y8992D01*
X32153Y9188D01*
X32181Y9398D01*
X32153Y9608D01*
X32072Y9804D01*
X31943Y9972D01*
X31775Y10101D01*
X31579Y10182D01*
X31369Y10210D01*
D02*
G37*
G36*
X62611Y15478D02*
X62319Y15440D01*
X62047Y15327D01*
X61814Y15148D01*
X61635Y14915D01*
X61522Y14643D01*
X61484Y14351D01*
X61522Y14059D01*
X61635Y13787D01*
X61814Y13554D01*
X62047Y13375D01*
X62319Y13262D01*
X62611Y13224D01*
X62903Y13262D01*
X63175Y13375D01*
X63408Y13554D01*
X63587Y13787D01*
X63700Y14059D01*
X63738Y14351D01*
X63700Y14643D01*
X63587Y14915D01*
X63408Y15148D01*
X63175Y15327D01*
X62903Y15440D01*
X62611Y15478D01*
D02*
G37*
G36*
Y25638D02*
X62319Y25600D01*
X62047Y25487D01*
X61814Y25308D01*
X61635Y25075D01*
X61594Y24977D01*
X57150D01*
X56972Y24942D01*
X56820Y24841D01*
X52375Y20396D01*
X52274Y20244D01*
X52239Y20066D01*
Y18564D01*
X52131Y18481D01*
X52002Y18313D01*
X51921Y18117D01*
X51893Y17907D01*
X51907Y17804D01*
X51794Y17691D01*
X51705Y17703D01*
X51495Y17675D01*
X51299Y17594D01*
X51131Y17465D01*
X51002Y17297D01*
X50921Y17101D01*
X50893Y16891D01*
X50921Y16681D01*
X51002Y16485D01*
X51131Y16317D01*
X51299Y16188D01*
X51495Y16107D01*
X51705Y16079D01*
X51915Y16107D01*
X52111Y16188D01*
X52279Y16317D01*
X52362Y16425D01*
X53467D01*
X53645Y16460D01*
X53797Y16561D01*
X54559Y17323D01*
X54585Y17363D01*
X54758Y17394D01*
X54779Y17378D01*
Y17211D01*
X52883Y15316D01*
X52782Y15164D01*
X52747Y14986D01*
Y9906D01*
X52782Y9728D01*
X52883Y9576D01*
X53391Y9068D01*
X53543Y8967D01*
X53721Y8932D01*
X54991D01*
X55169Y8967D01*
X55321Y9068D01*
X55999Y9747D01*
X56134Y9729D01*
X56344Y9757D01*
X56540Y9838D01*
X56708Y9967D01*
X56837Y10135D01*
X56918Y10331D01*
X56946Y10541D01*
X56918Y10751D01*
X56837Y10947D01*
X56708Y11115D01*
X56540Y11244D01*
X56344Y11325D01*
X56134Y11353D01*
X55924Y11325D01*
X55728Y11244D01*
X55560Y11115D01*
X55431Y10947D01*
X55350Y10751D01*
X55322Y10541D01*
X55332Y10470D01*
X55278Y10424D01*
X55143Y10475D01*
X55140Y10497D01*
X55059Y10693D01*
X54930Y10861D01*
X54822Y10944D01*
Y12253D01*
X55819Y13250D01*
X55962D01*
Y13091D01*
X55986Y12972D01*
X56053Y12871D01*
X56154Y12804D01*
X56273Y12780D01*
X57773D01*
X57892Y12804D01*
X57993Y12871D01*
X58060Y12972D01*
X58084Y13091D01*
Y14341D01*
X58060Y14460D01*
X57993Y14561D01*
X57892Y14628D01*
X57773Y14652D01*
X56273D01*
X56154Y14628D01*
X56053Y14561D01*
X55986Y14460D01*
X55962Y14341D01*
Y14182D01*
X55626D01*
X55448Y14147D01*
X55296Y14046D01*
X54026Y12776D01*
X53925Y12624D01*
X53890Y12446D01*
Y10963D01*
X53795Y10891D01*
X53679Y10933D01*
Y14793D01*
X55575Y16688D01*
X55676Y16840D01*
X55711Y17018D01*
Y19365D01*
X56762Y20416D01*
X56898Y20398D01*
X57148D01*
X57391Y20430D01*
X57617Y20524D01*
X57811Y20673D01*
X57960Y20867D01*
X58054Y21093D01*
X58086Y21336D01*
X58054Y21579D01*
X57960Y21805D01*
X57811Y21999D01*
X57785Y22020D01*
X57825Y22140D01*
X61410D01*
X61493Y22044D01*
X61484Y21971D01*
X61522Y21679D01*
X61635Y21407D01*
X61814Y21174D01*
X62047Y20995D01*
X62319Y20882D01*
X62611Y20844D01*
X62903Y20882D01*
X63175Y20995D01*
X63408Y21174D01*
X63587Y21407D01*
X63700Y21679D01*
X63738Y21971D01*
X63700Y22263D01*
X63587Y22535D01*
X63408Y22768D01*
X63175Y22947D01*
X62903Y23060D01*
X62611Y23098D01*
X62319Y23060D01*
X62196Y23009D01*
X62154Y23037D01*
X61976Y23072D01*
X56536D01*
X56488Y23189D01*
X57343Y24045D01*
X61594D01*
X61635Y23947D01*
X61814Y23714D01*
X62047Y23535D01*
X62319Y23422D01*
X62611Y23384D01*
X62903Y23422D01*
X63175Y23535D01*
X63408Y23714D01*
X63587Y23947D01*
X63700Y24219D01*
X63738Y24511D01*
X63700Y24803D01*
X63587Y25075D01*
X63408Y25308D01*
X63175Y25487D01*
X62903Y25600D01*
X62611Y25638D01*
D02*
G37*
G36*
X7440Y24507D02*
X7152Y24469D01*
X6883Y24358D01*
X6652Y24181D01*
X6475Y23950D01*
X6364Y23681D01*
X6326Y23393D01*
X6364Y23105D01*
X6475Y22836D01*
X6536Y22756D01*
X6480Y22643D01*
X5816D01*
X5688Y22809D01*
X5457Y22986D01*
X5188Y23097D01*
X4900Y23135D01*
X4612Y23097D01*
X4343Y22986D01*
X4112Y22809D01*
X3935Y22578D01*
X3824Y22309D01*
X3786Y22021D01*
X3824Y21733D01*
X3935Y21464D01*
X4112Y21233D01*
X4343Y21056D01*
X4612Y20945D01*
X4900Y20907D01*
X5188Y20945D01*
X5457Y21056D01*
X5688Y21233D01*
X5816Y21399D01*
X8329D01*
X8908Y20819D01*
X9110Y20685D01*
X9348Y20637D01*
X14401D01*
X14639Y20685D01*
X14840Y20819D01*
X15571Y21550D01*
X15704Y21568D01*
X15900Y21649D01*
X16068Y21778D01*
X16197Y21946D01*
X16278Y22142D01*
X16306Y22352D01*
X16278Y22562D01*
X16197Y22758D01*
X16068Y22926D01*
X15900Y23055D01*
X15704Y23136D01*
X15494Y23164D01*
X15284Y23136D01*
X15088Y23055D01*
X14920Y22926D01*
X14791Y22758D01*
X14710Y22562D01*
X14692Y22429D01*
X14144Y21881D01*
X9605D01*
X9026Y22461D01*
X8824Y22595D01*
X8586Y22643D01*
X8400D01*
X8344Y22756D01*
X8405Y22836D01*
X8516Y23105D01*
X8554Y23393D01*
X8516Y23681D01*
X8405Y23950D01*
X8228Y24181D01*
X7997Y24358D01*
X7728Y24469D01*
X7440Y24507D01*
D02*
G37*
G36*
X30226Y23291D02*
X30016Y23263D01*
X29820Y23182D01*
X29652Y23053D01*
X29523Y22885D01*
X29442Y22689D01*
X29414Y22479D01*
X29442Y22269D01*
X29523Y22073D01*
X29652Y21905D01*
X29820Y21776D01*
X30016Y21695D01*
X30226Y21667D01*
X30436Y21695D01*
X30632Y21776D01*
X30738Y21857D01*
X32630D01*
X32698Y21692D01*
X32827Y21524D01*
X32995Y21395D01*
X33191Y21314D01*
X33401Y21286D01*
X33611Y21314D01*
X33807Y21395D01*
X33975Y21524D01*
X34104Y21692D01*
X34185Y21888D01*
X34213Y22098D01*
X34185Y22308D01*
X34104Y22504D01*
X33975Y22672D01*
X33863Y22758D01*
X33840Y22792D01*
X33714Y22919D01*
X33512Y23053D01*
X33274Y23101D01*
X30738D01*
X30632Y23182D01*
X30436Y23263D01*
X30226Y23291D01*
D02*
G37*
G36*
X62611Y33258D02*
X62319Y33220D01*
X62047Y33107D01*
X61814Y32928D01*
X61635Y32695D01*
X61522Y32423D01*
X61484Y32131D01*
X61522Y31839D01*
X61635Y31567D01*
X61814Y31334D01*
X62047Y31155D01*
X62319Y31042D01*
X62611Y31004D01*
X62903Y31042D01*
X63175Y31155D01*
X63408Y31334D01*
X63587Y31567D01*
X63700Y31839D01*
X63738Y32131D01*
X63700Y32423D01*
X63587Y32695D01*
X63408Y32928D01*
X63175Y33107D01*
X62903Y33220D01*
X62611Y33258D01*
D02*
G37*
G36*
X6212Y34791D02*
X5639Y34754D01*
X5076Y34642D01*
X4533Y34457D01*
X4018Y34203D01*
X3541Y33884D01*
X3109Y33506D01*
X2731Y33074D01*
X2412Y32597D01*
X2158Y32082D01*
X1973Y31539D01*
X1861Y30976D01*
X1824Y30403D01*
X1861Y29830D01*
X1973Y29267D01*
X2158Y28724D01*
X2412Y28209D01*
X2731Y27732D01*
X3109Y27300D01*
X3541Y26922D01*
X4018Y26603D01*
X4533Y26349D01*
X5076Y26164D01*
X5639Y26052D01*
X6212Y26015D01*
X6785Y26052D01*
X7348Y26164D01*
X7891Y26349D01*
X8406Y26603D01*
X8883Y26922D01*
X9315Y27300D01*
X9693Y27732D01*
X10012Y28209D01*
X10266Y28724D01*
X10451Y29267D01*
X10563Y29830D01*
X10600Y30403D01*
X10563Y30976D01*
X10451Y31539D01*
X10266Y32082D01*
X10012Y32597D01*
X9693Y33074D01*
X9315Y33506D01*
X8883Y33884D01*
X8406Y34203D01*
X7891Y34457D01*
X7348Y34642D01*
X6785Y34754D01*
X6212Y34791D01*
D02*
G37*
G36*
X62611Y28178D02*
X62319Y28140D01*
X62047Y28027D01*
X61814Y27848D01*
X61635Y27615D01*
X61522Y27343D01*
X61484Y27051D01*
X61522Y26759D01*
X61635Y26487D01*
X61814Y26254D01*
X62047Y26075D01*
X62319Y25962D01*
X62611Y25924D01*
X62903Y25962D01*
X63175Y26075D01*
X63408Y26254D01*
X63587Y26487D01*
X63700Y26759D01*
X63738Y27051D01*
X63700Y27343D01*
X63587Y27615D01*
X63408Y27848D01*
X63175Y28027D01*
X62903Y28140D01*
X62611Y28178D01*
D02*
G37*
G36*
Y18018D02*
X62319Y17980D01*
X62047Y17867D01*
X61814Y17688D01*
X61635Y17455D01*
X61522Y17183D01*
X61484Y16891D01*
X61522Y16599D01*
X61635Y16327D01*
X61814Y16094D01*
X62047Y15915D01*
X62319Y15802D01*
X62611Y15764D01*
X62903Y15802D01*
X63175Y15915D01*
X63408Y16094D01*
X63587Y16327D01*
X63700Y16599D01*
X63738Y16891D01*
X63700Y17183D01*
X63587Y17455D01*
X63408Y17688D01*
X63175Y17867D01*
X62903Y17980D01*
X62611Y18018D01*
D02*
G37*
G36*
X4900Y17649D02*
X4612Y17611D01*
X4343Y17500D01*
X4112Y17323D01*
X3935Y17092D01*
X3824Y16823D01*
X3786Y16535D01*
X3824Y16247D01*
X3935Y15978D01*
X4112Y15747D01*
X4343Y15570D01*
X4612Y15459D01*
X4900Y15421D01*
X5188Y15459D01*
X5457Y15570D01*
X5688Y15747D01*
X5865Y15978D01*
X5976Y16247D01*
X6014Y16535D01*
X5976Y16823D01*
X5865Y17092D01*
X5688Y17323D01*
X5457Y17500D01*
X5188Y17611D01*
X4900Y17649D01*
D02*
G37*
G36*
X49401Y17194D02*
X49151D01*
X48908Y17162D01*
X48682Y17068D01*
X48488Y16919D01*
X48339Y16725D01*
X48245Y16499D01*
X48213Y16256D01*
X48245Y16013D01*
X48339Y15787D01*
X48488Y15593D01*
X48682Y15444D01*
X48908Y15350D01*
X49151Y15318D01*
X49401D01*
X49644Y15350D01*
X49870Y15444D01*
X50064Y15593D01*
X50213Y15787D01*
X50307Y16013D01*
X50339Y16256D01*
X50307Y16499D01*
X50213Y16725D01*
X50064Y16919D01*
X49870Y17068D01*
X49644Y17162D01*
X49401Y17194D01*
D02*
G37*
G36*
Y22274D02*
X49151D01*
X48908Y22242D01*
X48682Y22148D01*
X48488Y21999D01*
X48339Y21805D01*
X48245Y21579D01*
X48213Y21336D01*
X48245Y21093D01*
X48339Y20867D01*
X48488Y20673D01*
X48682Y20524D01*
X48908Y20430D01*
X49151Y20398D01*
X49401D01*
X49644Y20430D01*
X49870Y20524D01*
X50064Y20673D01*
X50213Y20867D01*
X50307Y21093D01*
X50339Y21336D01*
X50307Y21579D01*
X50213Y21805D01*
X50064Y21999D01*
X49870Y22148D01*
X49644Y22242D01*
X49401Y22274D01*
D02*
G37*
G36*
X62611Y20558D02*
X62319Y20520D01*
X62047Y20407D01*
X61814Y20228D01*
X61635Y19995D01*
X61522Y19723D01*
X61484Y19431D01*
X61522Y19139D01*
X61635Y18867D01*
X61814Y18634D01*
X62047Y18455D01*
X62319Y18342D01*
X62611Y18304D01*
X62903Y18342D01*
X63175Y18455D01*
X63408Y18634D01*
X63587Y18867D01*
X63700Y19139D01*
X63738Y19431D01*
X63700Y19723D01*
X63587Y19995D01*
X63408Y20228D01*
X63175Y20407D01*
X62903Y20520D01*
X62611Y20558D01*
D02*
G37*
G36*
X49401Y19734D02*
X49151D01*
X48908Y19702D01*
X48682Y19608D01*
X48488Y19459D01*
X48339Y19265D01*
X48245Y19039D01*
X48213Y18796D01*
X48245Y18553D01*
X48339Y18327D01*
X48488Y18133D01*
X48682Y17984D01*
X48908Y17890D01*
X49151Y17858D01*
X49401D01*
X49644Y17890D01*
X49870Y17984D01*
X50064Y18133D01*
X50213Y18327D01*
X50307Y18553D01*
X50339Y18796D01*
X50307Y19039D01*
X50213Y19265D01*
X50064Y19459D01*
X49870Y19608D01*
X49644Y19702D01*
X49401Y19734D01*
D02*
G37*
%LPD*%
D22*
X54229Y20701D02*
X56134Y22606D01*
X54229Y17653D02*
Y20701D01*
X53467Y16891D02*
X54229Y17653D01*
X51705Y16891D02*
X53467D01*
X55245Y17018D02*
Y19558D01*
X53213Y14986D02*
X55245Y17018D01*
X53213Y9906D02*
Y14986D01*
X52705Y17907D02*
Y20066D01*
X55245Y19558D02*
X57023Y21336D01*
X53213Y9906D02*
X53721Y9398D01*
X54991D01*
X56134Y10541D01*
X55626Y13716D02*
X57023D01*
X54356Y12446D02*
X55626Y13716D01*
X54356Y10287D02*
Y12446D01*
X56134Y22606D02*
X61976D01*
X57150Y24511D02*
X62611D01*
X52705Y20066D02*
X57150Y24511D01*
X61976Y22606D02*
X62611Y21971D01*
X60325Y9525D02*
Y12827D01*
D23*
X7440Y15163D02*
X13840Y8763D01*
X18669D01*
X7530Y17997D02*
X15494Y10033D01*
X4900Y22021D02*
X8586D01*
X9348Y21259D01*
X14401D01*
X33401Y22098D02*
Y22352D01*
X33274Y22479D02*
X33401Y22352D01*
X30226Y22479D02*
X33274D01*
X27305Y16002D02*
X30988Y12319D01*
X25527Y16002D02*
X27305D01*
X31369Y6350D02*
X32004Y5715D01*
X31369Y6350D02*
Y9398D01*
X14401Y21259D02*
X15494Y22352D01*
X21717Y10033D02*
X22987Y8763D01*
X15494Y10033D02*
X21717D01*
D25*
X49276Y21336D02*
D03*
Y18796D02*
D03*
Y16256D02*
D03*
X57023Y21336D02*
D03*
Y18796D02*
D03*
Y16256D02*
D03*
D26*
X49276Y13716D02*
D03*
X57023D02*
D03*
D27*
X62611Y1651D02*
D03*
Y4191D02*
D03*
Y6731D02*
D03*
Y9271D02*
D03*
Y32131D02*
D03*
Y11811D02*
D03*
Y14351D02*
D03*
Y16891D02*
D03*
Y19431D02*
D03*
Y21971D02*
D03*
Y24511D02*
D03*
Y27051D02*
D03*
Y29591D02*
D03*
D28*
Y34671D02*
D03*
D29*
X4900Y22021D02*
D03*
X4890Y19278D02*
D03*
X4900Y16535D02*
D03*
Y13792D02*
D03*
X7440Y23393D02*
D03*
Y20650D02*
D03*
Y17906D02*
D03*
Y15163D02*
D03*
D30*
Y12420D02*
D03*
D31*
X52705Y17907D02*
D03*
X51705Y16891D02*
D03*
X57912Y8128D02*
D03*
X35687Y11938D02*
D03*
X50673Y22733D02*
D03*
X46736Y31623D02*
D03*
X40767Y31496D02*
D03*
X35433Y22225D02*
D03*
X30480Y10922D02*
D03*
X18542Y16764D02*
D03*
X24384Y24638D02*
D03*
X56134Y10541D02*
D03*
X54356Y10287D02*
D03*
X60325Y12827D02*
D03*
Y9525D02*
D03*
X33401Y22098D02*
D03*
X30226Y22479D02*
D03*
X25527Y16002D02*
D03*
X30988Y12319D02*
D03*
X32004Y5715D02*
D03*
X31369Y9398D02*
D03*
X15494Y22352D02*
D03*
X22987Y8763D02*
D03*
X18669D02*
D03*
%TF.MD5,b38a1fc9e1fe4ae22aed6055f51babbc*%
M02*
