G04 Layer_Color=8388736*
%FSLAX43Y43*%
%MOMM*%
%TF.FileFunction,Soldermask,Top*%
%TF.Part,Single*%
G01*
G75*
%TA.AperFunction,ComponentPad*%
%ADD32O,1.650X1.400*%
%ADD33R,1.650X1.400*%
%ADD34C,1.776*%
%ADD35R,1.776X1.776*%
%ADD36C,0.150*%
%ADD37C,1.750*%
%ADD38R,1.750X1.750*%
%TA.AperFunction,ViaPad*%
%ADD39C,1.150*%
%TA.AperFunction,SMDPad,CuDef*%
%ADD44R,1.250X1.650*%
%ADD45R,1.650X1.250*%
%ADD46O,2.300X0.750*%
%ADD47R,2.300X0.750*%
%ADD48O,0.750X2.300*%
%ADD49R,0.750X2.300*%
%ADD50R,0.750X1.250*%
%ADD51R,1.050X1.050*%
%ADD52R,1.400X1.050*%
%ADD53O,1.450X0.450*%
%ADD54R,1.450X0.450*%
%ADD55O,0.450X1.850*%
D32*
X49276Y21336D02*
D03*
Y18796D02*
D03*
Y16256D02*
D03*
X57023Y21336D02*
D03*
Y18796D02*
D03*
Y16256D02*
D03*
D33*
X49276Y13716D02*
D03*
X57023D02*
D03*
D34*
X62611Y1651D02*
D03*
Y4191D02*
D03*
Y6731D02*
D03*
Y9271D02*
D03*
Y32131D02*
D03*
Y11811D02*
D03*
Y14351D02*
D03*
Y16891D02*
D03*
Y19431D02*
D03*
Y21971D02*
D03*
Y24511D02*
D03*
Y27051D02*
D03*
Y29591D02*
D03*
D35*
Y34671D02*
D03*
D36*
X6212Y5410D02*
D03*
Y30403D02*
D03*
D37*
X4900Y22021D02*
D03*
X4890Y19278D02*
D03*
X4900Y16535D02*
D03*
Y13792D02*
D03*
X7440Y23393D02*
D03*
Y20650D02*
D03*
Y17906D02*
D03*
Y15163D02*
D03*
D38*
Y12420D02*
D03*
D39*
X52705Y17907D02*
D03*
X51705Y16891D02*
D03*
X57912Y8128D02*
D03*
X35687Y11938D02*
D03*
X50673Y22733D02*
D03*
X46736Y31623D02*
D03*
X40767Y31496D02*
D03*
X35433Y22225D02*
D03*
X30480Y10922D02*
D03*
X18542Y16764D02*
D03*
X24384Y24638D02*
D03*
X56134Y10541D02*
D03*
X54356Y10287D02*
D03*
X60325Y12827D02*
D03*
Y9525D02*
D03*
X33401Y22098D02*
D03*
X30226Y22479D02*
D03*
X25527Y16002D02*
D03*
X30988Y12319D02*
D03*
X32004Y5715D02*
D03*
X31369Y9398D02*
D03*
X15494Y22352D02*
D03*
X22987Y8763D02*
D03*
X18669D02*
D03*
D44*
X43518Y27178D02*
D03*
X41318D02*
D03*
X12616Y15748D02*
D03*
X14816D02*
D03*
X29548Y17272D02*
D03*
X27348D02*
D03*
X41486Y19685D02*
D03*
X39286D02*
D03*
X34501D02*
D03*
X32301D02*
D03*
X37254Y27178D02*
D03*
X39454D02*
D03*
X37254Y29464D02*
D03*
X39454D02*
D03*
X51901Y21579D02*
D03*
X54101D02*
D03*
X52408Y29591D02*
D03*
X50208D02*
D03*
X50251Y31623D02*
D03*
X52451D02*
D03*
X26078Y24511D02*
D03*
X28278D02*
D03*
Y30861D02*
D03*
X26078D02*
D03*
Y32766D02*
D03*
X28278D02*
D03*
X14816Y7747D02*
D03*
X12616D02*
D03*
X14816Y11557D02*
D03*
X12616D02*
D03*
X29167Y5969D02*
D03*
X26967D02*
D03*
X16426Y3683D02*
D03*
X18626D02*
D03*
X25103D02*
D03*
X22903D02*
D03*
X14816Y9652D02*
D03*
X12616D02*
D03*
X22563Y16002D02*
D03*
X20363D02*
D03*
X26967Y13843D02*
D03*
X29167D02*
D03*
X11600Y26797D02*
D03*
X13800D02*
D03*
X17991D02*
D03*
X15791D02*
D03*
X13800Y22606D02*
D03*
X11600D02*
D03*
X29167Y9652D02*
D03*
X26967D02*
D03*
X29548Y19685D02*
D03*
X27348D02*
D03*
X20490Y24511D02*
D03*
X22690D02*
D03*
X43477Y19685D02*
D03*
X45677D02*
D03*
Y23876D02*
D03*
X43477D02*
D03*
D45*
X47625Y8933D02*
D03*
Y11133D02*
D03*
X15494Y20819D02*
D03*
Y18619D02*
D03*
X32258Y17399D02*
D03*
Y15199D02*
D03*
X41529Y15156D02*
D03*
Y17356D02*
D03*
X36830Y16086D02*
D03*
Y13886D02*
D03*
Y19642D02*
D03*
Y17442D02*
D03*
X45720Y16086D02*
D03*
Y13886D02*
D03*
X33147Y9228D02*
D03*
Y7028D02*
D03*
X30480Y24554D02*
D03*
Y26754D02*
D03*
X24130Y26586D02*
D03*
Y28786D02*
D03*
X18034Y32977D02*
D03*
Y30777D02*
D03*
X12573Y5545D02*
D03*
Y3345D02*
D03*
X29210Y4021D02*
D03*
Y1821D02*
D03*
X56642Y6434D02*
D03*
Y4234D02*
D03*
X44323Y6647D02*
D03*
Y8847D02*
D03*
X41910D02*
D03*
Y6647D02*
D03*
D46*
X24328Y20950D02*
D03*
X18613Y19680D02*
D03*
Y18410D02*
D03*
X24328D02*
D03*
Y22220D02*
D03*
X18613Y20950D02*
D03*
X24328Y19680D02*
D03*
X54173Y26411D02*
D03*
X48458Y25141D02*
D03*
Y23871D02*
D03*
X54173D02*
D03*
Y27681D02*
D03*
X48458Y26411D02*
D03*
X54173Y25141D02*
D03*
D47*
X18613Y22220D02*
D03*
X48458Y27681D02*
D03*
D48*
X38603Y5136D02*
D03*
X37333Y10851D02*
D03*
X36063D02*
D03*
Y5136D02*
D03*
X39873D02*
D03*
X38603Y10851D02*
D03*
X37333Y5136D02*
D03*
D49*
X39873Y10851D02*
D03*
D50*
X28128Y26289D02*
D03*
X26228D02*
D03*
X27178D02*
D03*
X28128Y29089D02*
D03*
X26228D02*
D03*
D51*
X16453Y5903D02*
D03*
Y7808D02*
D03*
X25203Y7813D02*
D03*
Y5908D02*
D03*
Y11623D02*
D03*
Y9718D02*
D03*
X16453Y9713D02*
D03*
Y11618D02*
D03*
D52*
X18675Y6856D02*
D03*
X22981Y6860D02*
D03*
Y10670D02*
D03*
X18675Y10666D02*
D03*
D53*
X36506Y23511D02*
D03*
Y24011D02*
D03*
X40456Y24511D02*
D03*
Y24011D02*
D03*
X36506Y25011D02*
D03*
Y24511D02*
D03*
Y25511D02*
D03*
X40456Y25011D02*
D03*
Y25511D02*
D03*
D54*
Y23511D02*
D03*
D55*
X53705Y8019D02*
D03*
X53205D02*
D03*
X52705D02*
D03*
X52205D02*
D03*
X51705D02*
D03*
X53705Y3919D02*
D03*
X53205D02*
D03*
X52705D02*
D03*
X52205D02*
D03*
X51705D02*
D03*
%TF.MD5,8548acb77809db1ac793275ce4aae599*%
M02*
