M48
;Layer_Color=9474304
;FILE_FORMAT=2:4
INCH,LZ
;TYPE=PLATED
T1F00S00C0.0197
T2F00S00C0.0315
T3F00S00C0.0354
T4F00S00C0.0394
T5F00S00C0.1260
%
T01
X01405Y0047
X0214Y00405
X0221Y00415
X0228Y0032
X02375Y00375
Y00505
X020356Y00665
X02075Y00705
X0122Y00485
X012Y0043
X01235Y0037
X0126Y00225
X00905Y00345
X00735
X0073Y0066
X01005Y0063
X0096Y0097
X0119Y00885
X01315Y0087
X0061Y0088
X01395Y00875
X01605Y0124
X0184Y01245
X01995Y00895
T02
X02465Y00065
Y00165
Y00265
Y00365
Y00465
Y00565
Y00665
Y00765
Y00865
Y00965
Y01065
Y01165
Y01265
Y01365
T03
X0194Y0054
Y0064
Y0074
X02245
Y0064
Y0054
Y0084
X0194
T04
X001929Y00543
Y00651
X001925Y00759
X002929Y00705
Y00597
Y00489
Y00813
Y00921
X001929Y00867
T05
X002446Y01197
M30
